<svg id="svg" version="1.1" xmlns="http://www.w3.org/2000/svg" xmlns:xlink="http://www.w3.org/1999/xlink" width="400" height="81.26984126984127" viewBox="0, 0, 400,81.26984126984127"><g id="svgg"><path id="path0" d="M163.211 10.167 C 163.054 10.350,162.756 10.500,162.548 10.500 C 162.340 10.500,162.076 10.650,161.961 10.833 C 161.813 11.071,161.573 11.167,161.121 11.167 C 160.733 11.167,160.455 11.257,160.400 11.400 C 160.351 11.529,160.053 11.682,159.738 11.741 C 159.424 11.800,159.167 11.944,159.167 12.061 C 159.167 12.179,158.885 12.344,158.542 12.429 L 157.917 12.583 157.917 37.167 L 157.917 61.750 159.389 61.798 C 160.751 61.843,160.868 61.821,160.950 61.507 C 161.016 61.255,161.176 61.167,161.563 61.167 C 161.906 61.167,162.158 61.052,162.295 60.833 C 162.426 60.624,162.683 60.500,162.990 60.500 C 163.257 60.500,163.577 60.399,163.701 60.276 C 163.824 60.152,164.197 60.000,164.530 59.938 C 164.862 59.875,165.177 59.714,165.229 59.579 C 165.280 59.444,165.475 59.333,165.661 59.333 C 165.998 59.333,166.000 59.275,166.000 49.167 L 166.000 39.000 176.833 39.000 L 187.667 39.000 187.667 39.647 C 187.667 40.154,187.594 40.313,187.333 40.382 C 187.025 40.462,187.000 40.609,187.000 42.318 C 187.000 43.787,186.952 44.167,186.768 44.167 C 186.455 44.167,186.333 44.537,186.333 45.488 C 186.333 46.070,186.244 46.362,186.000 46.583 C 185.817 46.749,185.667 47.090,185.667 47.341 C 185.667 47.593,185.555 47.841,185.417 47.894 C 185.260 47.954,185.167 48.209,185.167 48.578 C 185.167 49.056,185.104 49.167,184.833 49.167 C 184.626 49.167,184.500 49.278,184.500 49.460 C 184.500 49.621,184.350 49.847,184.167 49.961 C 183.955 50.093,183.833 50.350,183.833 50.663 C 183.833 51.041,183.773 51.133,183.573 51.056 C 183.402 50.991,183.283 51.072,183.225 51.296 C 183.176 51.483,182.993 51.673,182.818 51.719 C 182.643 51.765,182.500 51.922,182.500 52.068 C 182.500 52.214,182.387 52.333,182.250 52.333 C 182.111 52.333,182.000 52.481,182.000 52.667 C 182.000 52.889,181.889 53.000,181.667 53.000 C 181.444 53.000,181.333 53.111,181.333 53.333 C 181.333 53.556,181.222 53.667,181.000 53.667 C 180.815 53.667,180.667 53.778,180.667 53.917 C 180.667 54.054,180.528 54.167,180.359 54.167 C 180.190 54.167,179.916 54.317,179.750 54.500 C 179.584 54.683,179.319 54.833,179.160 54.833 C 179.002 54.833,178.833 54.983,178.785 55.167 C 178.721 55.412,178.558 55.500,178.167 55.500 C 177.776 55.500,177.612 55.588,177.548 55.833 C 177.500 56.018,177.321 56.167,177.147 56.167 C 176.665 56.167,176.683 57.825,177.167 57.952 C 177.415 58.017,177.500 58.179,177.500 58.592 C 177.500 58.998,177.588 59.172,177.833 59.250 C 178.081 59.329,178.167 59.502,178.167 59.928 C 178.167 60.291,178.247 60.500,178.387 60.500 C 178.509 60.500,178.677 60.781,178.762 61.125 L 178.917 61.750 180.554 61.750 C 181.940 61.750,182.216 61.705,182.354 61.458 C 182.451 61.285,182.713 61.167,183.002 61.167 C 183.318 61.167,183.551 61.050,183.667 60.833 C 183.765 60.650,183.962 60.500,184.105 60.500 C 184.247 60.500,184.555 60.350,184.788 60.167 C 185.021 59.983,185.314 59.833,185.439 59.833 C 185.564 59.833,185.667 59.721,185.667 59.583 C 185.667 59.444,185.815 59.333,186.000 59.333 C 186.222 59.333,186.333 59.222,186.333 59.000 C 186.333 58.817,186.438 58.667,186.567 58.667 C 186.876 58.667,188.833 56.714,188.833 56.406 C 188.833 56.275,188.953 56.167,189.099 56.167 C 189.245 56.167,189.404 56.017,189.452 55.833 C 189.500 55.650,189.645 55.500,189.775 55.500 C 189.904 55.500,190.059 55.369,190.118 55.208 C 190.177 55.048,190.321 54.858,190.439 54.787 C 190.557 54.716,190.702 54.397,190.762 54.079 C 190.825 53.741,190.969 53.500,191.107 53.500 C 191.237 53.500,191.392 53.369,191.451 53.208 C 191.510 53.048,191.658 52.857,191.779 52.783 C 191.901 52.710,192.000 52.438,192.000 52.178 C 192.000 51.846,192.099 51.680,192.333 51.618 C 192.586 51.552,192.667 51.391,192.667 50.952 C 192.667 50.512,192.747 50.351,193.000 50.285 C 193.243 50.222,193.333 50.058,193.333 49.682 C 193.333 49.389,193.477 49.023,193.667 48.833 C 193.878 48.622,194.000 48.278,194.000 47.893 C 194.000 47.536,194.107 47.209,194.260 47.097 C 194.440 46.965,194.551 46.504,194.618 45.607 C 194.675 44.861,194.813 44.211,194.942 44.082 C 195.110 43.914,195.167 43.248,195.167 41.448 C 195.167 39.179,195.186 39.034,195.500 38.952 C 195.818 38.869,195.833 38.724,195.833 35.833 C 195.833 32.942,195.818 32.798,195.500 32.715 C 195.186 32.633,195.167 32.488,195.167 30.219 C 195.167 28.419,195.110 27.753,194.942 27.585 C 194.813 27.456,194.675 26.805,194.618 26.060 C 194.551 25.163,194.440 24.701,194.260 24.570 C 194.117 24.466,193.999 24.163,193.998 23.898 C 193.994 23.163,193.819 22.667,193.564 22.667 C 193.410 22.667,193.333 22.467,193.333 22.068 C 193.333 21.609,193.255 21.448,193.000 21.382 C 192.747 21.316,192.667 21.154,192.667 20.715 C 192.667 20.276,192.586 20.114,192.333 20.048 C 192.099 19.987,192.000 19.821,192.000 19.489 C 192.000 19.229,191.901 18.957,191.779 18.883 C 191.658 18.810,191.510 18.619,191.451 18.458 C 191.392 18.298,191.237 18.167,191.107 18.167 C 190.968 18.167,190.825 17.923,190.759 17.575 C 190.698 17.249,190.540 16.941,190.407 16.890 C 190.275 16.839,190.167 16.686,190.167 16.550 C 190.167 16.414,190.017 16.263,189.833 16.215 C 189.649 16.167,189.500 15.988,189.500 15.814 C 189.500 15.611,189.382 15.500,189.167 15.500 C 188.983 15.500,188.833 15.392,188.833 15.260 C 188.833 14.952,186.876 13.000,186.567 13.000 C 186.438 13.000,186.333 12.850,186.333 12.667 C 186.333 12.444,186.222 12.333,186.000 12.333 C 185.815 12.333,185.667 12.222,185.667 12.083 C 185.667 11.946,185.566 11.833,185.442 11.833 C 185.319 11.833,185.045 11.683,184.833 11.500 C 184.622 11.317,184.313 11.167,184.147 11.167 C 183.981 11.167,183.765 11.017,183.667 10.833 C 183.562 10.638,183.318 10.500,183.077 10.500 C 182.852 10.500,182.517 10.350,182.333 10.167 C 182.047 9.881,181.778 9.833,180.431 9.833 L 178.863 9.833 178.750 10.500 C 178.681 10.910,178.547 11.167,178.402 11.167 C 178.246 11.167,178.167 11.356,178.167 11.731 C 178.167 12.154,178.084 12.316,177.833 12.382 C 177.581 12.448,177.500 12.609,177.500 13.048 C 177.500 13.488,177.419 13.649,177.167 13.715 C 176.683 13.841,176.665 15.500,177.147 15.500 C 177.321 15.500,177.500 15.649,177.548 15.833 C 177.612 16.079,177.776 16.167,178.167 16.167 C 178.558 16.167,178.721 16.255,178.785 16.500 C 178.833 16.683,178.983 16.833,179.118 16.833 C 179.253 16.833,179.555 16.983,179.788 17.167 C 180.021 17.350,180.314 17.500,180.439 17.500 C 180.564 17.500,180.667 17.612,180.667 17.750 C 180.667 17.889,180.815 18.000,181.000 18.000 C 181.222 18.000,181.333 18.111,181.333 18.333 C 181.333 18.556,181.444 18.667,181.667 18.667 C 181.889 18.667,182.000 18.778,182.000 19.000 C 182.000 19.183,182.104 19.333,182.231 19.333 C 182.357 19.333,182.500 19.483,182.548 19.667 C 182.596 19.850,182.746 20.000,182.882 20.000 C 183.017 20.000,183.167 20.150,183.215 20.333 C 183.263 20.517,183.422 20.667,183.568 20.667 C 183.722 20.667,183.833 20.806,183.833 21.000 C 183.833 21.183,183.983 21.483,184.167 21.667 C 184.350 21.850,184.500 22.112,184.500 22.250 C 184.500 22.389,184.648 22.500,184.833 22.500 C 185.101 22.500,185.167 22.611,185.167 23.066 C 185.167 23.414,185.262 23.668,185.417 23.727 C 185.559 23.781,185.667 24.030,185.667 24.302 C 185.667 24.570,185.814 24.915,186.000 25.083 C 186.244 25.305,186.333 25.597,186.333 26.179 C 186.333 27.129,186.455 27.500,186.768 27.500 C 186.952 27.500,187.000 27.880,187.000 29.349 C 187.000 31.058,187.025 31.204,187.333 31.285 C 187.594 31.353,187.667 31.512,187.667 32.019 L 187.667 32.667 176.833 32.667 L 166.000 32.667 166.000 21.250 L 166.000 9.833 164.748 9.833 C 163.703 9.833,163.450 9.888,163.211 10.167 M128.048 10.833 C 127.981 11.091,127.821 11.167,127.346 11.167 C 127.007 11.167,126.585 11.277,126.407 11.411 C 126.229 11.546,125.966 11.658,125.823 11.661 C 125.680 11.664,125.402 11.817,125.205 12.000 C 125.008 12.183,124.725 12.333,124.575 12.333 C 124.425 12.333,124.263 12.483,124.215 12.667 C 124.167 12.851,123.988 13.000,123.814 13.000 C 123.611 13.000,123.500 13.118,123.500 13.333 C 123.500 13.517,123.391 13.667,123.258 13.667 C 122.937 13.667,122.133 14.478,122.257 14.677 C 122.310 14.763,122.229 14.833,122.078 14.833 C 121.926 14.833,121.765 14.976,121.719 15.151 C 121.673 15.326,121.493 15.507,121.318 15.552 C 121.133 15.601,121.000 15.781,121.000 15.984 C 121.000 16.176,120.896 16.333,120.768 16.333 C 120.513 16.333,120.333 16.684,120.333 17.180 C 120.333 17.356,120.229 17.500,120.101 17.500 C 119.801 17.500,119.667 17.866,119.667 18.680 C 119.667 19.127,119.593 19.333,119.434 19.333 C 118.841 19.333,118.742 27.297,119.333 27.452 C 119.590 27.519,119.667 27.679,119.667 28.146 C 119.667 28.573,119.766 28.815,120.000 28.961 C 120.194 29.082,120.333 29.350,120.333 29.600 C 120.333 29.891,120.442 30.060,120.667 30.118 C 120.850 30.166,121.000 30.316,121.000 30.452 C 121.000 30.587,121.150 30.737,121.333 30.785 C 121.517 30.833,121.667 30.976,121.667 31.103 C 121.667 31.230,121.779 31.333,121.917 31.333 C 122.054 31.333,122.167 31.453,122.167 31.599 C 122.167 31.745,122.310 31.902,122.485 31.948 C 122.659 31.993,122.840 32.174,122.886 32.349 C 122.931 32.524,123.080 32.667,123.217 32.667 C 123.353 32.667,123.506 32.775,123.557 32.907 C 123.608 33.040,123.909 33.197,124.226 33.256 C 124.596 33.326,124.832 33.479,124.886 33.682 C 124.941 33.893,125.116 34.000,125.406 34.000 C 125.647 34.000,125.887 34.112,125.940 34.250 C 126.002 34.413,126.262 34.500,126.684 34.500 C 127.222 34.500,127.333 34.557,127.333 34.833 C 127.333 35.103,127.444 35.167,127.917 35.167 C 128.278 35.167,128.627 35.294,128.833 35.500 C 129.091 35.758,129.389 35.833,130.147 35.833 C 130.988 35.833,131.140 35.881,131.215 36.167 C 131.292 36.460,131.442 36.500,132.484 36.500 C 133.376 36.500,133.667 36.556,133.667 36.729 C 133.667 36.956,134.352 37.167,135.086 37.167 C 135.294 37.167,135.508 37.279,135.560 37.417 C 135.620 37.574,135.875 37.667,136.245 37.667 C 136.722 37.667,136.833 37.730,136.833 38.000 C 136.833 38.222,136.944 38.333,137.167 38.333 C 137.350 38.333,137.650 38.483,137.833 38.667 C 138.017 38.850,138.270 39.000,138.397 39.000 C 138.524 39.000,138.667 39.150,138.715 39.333 C 138.763 39.517,138.922 39.667,139.068 39.667 C 139.214 39.667,139.333 39.777,139.333 39.911 C 139.333 40.045,139.483 40.235,139.667 40.333 C 139.867 40.440,140.000 40.682,140.000 40.938 C 140.000 41.224,140.110 41.393,140.333 41.452 C 140.610 41.524,140.667 41.679,140.667 42.368 C 140.667 43.058,140.723 43.213,141.000 43.285 C 141.305 43.365,141.333 43.512,141.333 45.000 C 141.333 46.488,141.305 46.635,141.000 46.715 C 140.724 46.787,140.667 46.942,140.667 47.611 C 140.667 48.239,140.592 48.466,140.333 48.628 C 140.121 48.761,140.000 49.017,140.000 49.335 C 140.000 49.671,139.917 49.833,139.745 49.833 C 139.604 49.833,139.441 49.965,139.382 50.125 C 139.323 50.285,139.176 50.477,139.054 50.550 C 138.933 50.623,138.833 50.788,138.833 50.916 C 138.833 51.243,137.824 52.278,137.375 52.411 C 137.169 52.472,137.000 52.594,137.000 52.682 C 137.000 52.770,136.813 52.913,136.583 53.000 C 136.354 53.087,136.167 53.273,136.167 53.413 C 136.167 53.592,135.995 53.667,135.583 53.667 C 135.198 53.667,135.000 53.745,135.000 53.897 C 135.000 54.063,134.691 54.148,133.897 54.198 C 133.111 54.248,132.733 54.350,132.586 54.551 C 132.326 54.907,131.846 54.915,131.592 54.567 C 131.461 54.388,131.031 54.271,130.283 54.211 C 129.646 54.160,129.089 54.024,128.981 53.894 C 128.877 53.769,128.585 53.667,128.332 53.667 C 128.012 53.667,127.846 53.565,127.785 53.333 C 127.722 53.091,127.558 53.000,127.182 53.000 C 126.778 53.000,126.667 52.928,126.667 52.667 C 126.667 52.444,126.556 52.333,126.333 52.333 C 126.111 52.333,126.000 52.222,126.000 52.000 C 126.000 51.778,125.889 51.667,125.667 51.667 C 125.444 51.667,125.333 51.556,125.333 51.333 C 125.333 51.148,125.222 51.000,125.083 51.000 C 124.946 51.000,124.833 50.906,124.833 50.790 C 124.833 50.675,124.694 50.493,124.523 50.387 C 124.353 50.280,124.167 49.962,124.111 49.680 C 124.050 49.376,123.905 49.167,123.754 49.167 C 123.611 49.167,123.500 49.021,123.500 48.833 C 123.500 48.327,120.541 48.327,120.083 48.833 C 119.881 49.057,119.570 49.167,119.141 49.167 C 118.617 49.167,118.500 49.226,118.500 49.492 C 118.500 49.770,118.364 49.824,117.542 49.867 C 116.662 49.913,116.579 49.951,116.526 50.333 C 116.494 50.563,116.397 50.837,116.309 50.943 C 116.207 51.068,116.213 51.176,116.325 51.245 C 116.421 51.304,116.500 51.543,116.500 51.775 C 116.500 52.058,116.611 52.227,116.833 52.285 C 117.072 52.348,117.167 52.512,117.167 52.868 C 117.167 53.224,117.261 53.389,117.500 53.452 C 117.684 53.500,117.833 53.679,117.833 53.853 C 117.833 54.056,117.951 54.167,118.167 54.167 C 118.389 54.167,118.500 54.278,118.500 54.500 C 118.500 54.683,118.561 54.833,118.636 54.833 C 118.710 54.833,118.897 55.096,119.050 55.417 C 119.203 55.737,119.395 56.000,119.478 56.000 C 119.560 56.000,119.667 56.150,119.715 56.333 C 119.763 56.517,119.913 56.667,120.048 56.667 C 120.184 56.667,120.334 56.817,120.382 57.000 C 120.430 57.183,120.580 57.333,120.715 57.333 C 120.850 57.333,121.000 57.483,121.048 57.667 C 121.107 57.890,121.276 58.000,121.562 58.000 C 121.818 58.000,122.060 58.133,122.167 58.333 C 122.265 58.517,122.446 58.667,122.570 58.667 C 122.693 58.667,122.834 58.817,122.882 59.000 C 122.941 59.226,123.109 59.333,123.403 59.333 C 123.641 59.333,123.965 59.483,124.122 59.667 C 124.282 59.853,124.614 60.000,124.876 60.000 C 125.138 60.000,125.386 60.110,125.440 60.250 C 125.505 60.420,125.771 60.500,126.266 60.500 C 126.817 60.500,127.049 60.582,127.205 60.833 C 127.575 61.426,137.333 61.328,137.333 60.732 C 137.333 60.565,137.563 60.500,138.146 60.500 C 138.638 60.500,139.035 60.408,139.152 60.267 C 139.258 60.140,139.605 59.986,139.923 59.927 C 140.267 59.862,140.500 59.720,140.500 59.576 C 140.500 59.442,140.650 59.333,140.833 59.333 C 141.017 59.333,141.317 59.183,141.500 59.000 C 141.683 58.817,141.953 58.667,142.099 58.667 C 142.245 58.667,142.404 58.517,142.452 58.333 C 142.500 58.149,142.679 58.000,142.853 58.000 C 143.056 58.000,143.167 57.882,143.167 57.667 C 143.167 57.444,143.278 57.333,143.500 57.333 C 143.685 57.333,143.833 57.222,143.833 57.083 C 143.833 56.946,143.953 56.833,144.099 56.833 C 144.245 56.833,144.404 56.683,144.452 56.500 C 144.500 56.317,144.643 56.167,144.769 56.167 C 144.896 56.167,145.000 56.017,145.000 55.833 C 145.000 55.611,145.111 55.500,145.333 55.500 C 145.549 55.500,145.667 55.389,145.667 55.186 C 145.667 55.012,145.816 54.833,146.000 54.785 C 146.225 54.726,146.333 54.558,146.333 54.267 C 146.333 54.017,146.473 53.749,146.667 53.628 C 146.850 53.513,147.000 53.288,147.000 53.127 C 147.000 52.965,147.104 52.833,147.232 52.833 C 147.475 52.833,147.667 52.487,147.667 52.046 C 147.667 51.904,147.784 51.701,147.928 51.596 C 148.071 51.491,148.231 51.090,148.283 50.705 C 148.334 50.320,148.479 49.920,148.605 49.815 C 148.760 49.687,148.833 49.237,148.833 48.416 C 148.833 47.346,148.872 47.195,149.167 47.118 C 149.747 46.967,149.649 42.333,149.066 42.333 C 148.888 42.333,148.833 42.040,148.833 41.078 C 148.833 40.116,148.775 39.800,148.583 39.727 C 148.441 39.672,148.333 39.423,148.333 39.147 C 148.333 38.870,148.191 38.542,148.000 38.378 C 147.817 38.221,147.667 37.915,147.667 37.697 C 147.667 37.449,147.549 37.271,147.349 37.219 C 147.149 37.167,146.993 36.931,146.928 36.584 C 146.871 36.281,146.714 35.990,146.579 35.938 C 146.444 35.886,146.333 35.734,146.333 35.600 C 146.333 35.466,146.183 35.308,146.000 35.250 C 145.817 35.192,145.667 35.042,145.667 34.917 C 145.667 34.792,145.517 34.642,145.333 34.583 C 145.150 34.525,145.000 34.370,145.000 34.239 C 145.000 34.107,144.850 34.000,144.667 34.000 C 144.444 34.000,144.333 33.889,144.333 33.667 C 144.333 33.423,144.222 33.333,143.918 33.333 C 143.683 33.333,143.412 33.188,143.295 33.000 C 143.180 32.817,142.963 32.667,142.813 32.667 C 142.662 32.667,142.500 32.517,142.452 32.333 C 142.393 32.110,142.224 32.000,141.938 32.000 C 141.682 32.000,141.440 31.867,141.333 31.667 C 141.216 31.447,140.984 31.333,140.656 31.333 C 140.365 31.333,140.116 31.229,140.060 31.083 C 139.998 30.922,139.741 30.833,139.335 30.833 C 138.846 30.833,138.686 30.759,138.618 30.500 C 138.544 30.217,138.391 30.167,137.599 30.167 C 136.913 30.167,136.667 30.105,136.667 29.934 C 136.667 29.596,136.286 29.500,134.943 29.500 C 133.927 29.500,133.715 29.450,133.539 29.167 C 133.376 28.906,133.150 28.833,132.499 28.833 C 131.882 28.833,131.667 28.771,131.667 28.591 C 131.667 28.442,131.425 28.304,131.042 28.234 C 130.698 28.171,130.269 28.018,130.088 27.893 C 129.907 27.769,129.626 27.667,129.463 27.667 C 129.278 27.667,129.167 27.542,129.167 27.333 C 129.167 27.150,129.058 27.000,128.925 27.000 C 128.633 27.000,127.933 26.361,127.784 25.958 C 127.725 25.798,127.600 25.667,127.505 25.667 C 127.411 25.667,127.333 25.453,127.333 25.192 C 127.333 24.930,127.185 24.584,127.000 24.417 C 126.571 24.029,126.531 22.719,126.938 22.421 C 127.105 22.300,127.242 21.888,127.293 21.361 C 127.347 20.798,127.452 20.500,127.597 20.500 C 127.719 20.500,127.867 20.237,127.928 19.917 C 127.990 19.583,128.136 19.333,128.269 19.333 C 128.396 19.333,128.500 19.183,128.500 19.000 C 128.500 18.793,128.611 18.667,128.793 18.667 C 128.955 18.667,129.180 18.517,129.295 18.333 C 129.410 18.148,129.683 18.000,129.910 18.000 C 130.134 18.000,130.377 17.899,130.450 17.775 C 130.523 17.651,130.987 17.504,131.481 17.447 C 131.975 17.390,132.519 17.217,132.690 17.063 C 132.981 16.799,133.019 16.799,133.310 17.063 C 133.481 17.217,134.013 17.390,134.492 17.447 C 134.988 17.506,135.400 17.647,135.449 17.775 C 135.497 17.899,135.669 18.000,135.832 18.000 C 135.995 18.000,136.167 18.150,136.215 18.333 C 136.263 18.517,136.413 18.667,136.548 18.667 C 136.684 18.667,136.834 18.817,136.882 19.000 C 136.930 19.183,137.088 19.333,137.234 19.333 C 137.389 19.333,137.500 19.473,137.500 19.667 C 137.500 19.889,137.611 20.000,137.833 20.000 C 138.056 20.000,138.167 20.111,138.167 20.333 C 138.167 20.841,140.895 20.841,141.167 20.333 C 141.304 20.077,141.516 20.000,142.088 20.000 C 142.650 20.000,142.881 19.919,143.039 19.667 C 143.186 19.431,143.427 19.333,143.864 19.333 C 144.617 19.333,145.000 18.876,145.000 17.974 C 145.000 17.317,144.398 16.186,144.042 16.174 C 143.927 16.170,143.833 16.017,143.833 15.833 C 143.833 15.650,143.696 15.363,143.529 15.196 C 143.362 15.028,143.176 14.766,143.117 14.612 C 143.059 14.459,142.896 14.333,142.755 14.333 C 142.615 14.333,142.500 14.214,142.500 14.068 C 142.500 13.922,142.350 13.763,142.167 13.715 C 141.983 13.667,141.833 13.522,141.833 13.392 C 141.833 13.262,141.708 13.108,141.554 13.049 C 141.401 12.990,141.138 12.805,140.971 12.638 C 140.804 12.470,140.517 12.333,140.333 12.333 C 140.150 12.333,140.000 12.239,140.000 12.123 C 140.000 11.849,138.547 11.163,137.970 11.165 C 137.668 11.166,137.488 11.058,137.417 10.833 C 137.314 10.511,137.164 10.500,132.723 10.500 C 128.276 10.500,128.133 10.510,128.048 10.833 M218.000 10.833 C 217.819 11.085,217.569 11.167,216.981 11.167 C 216.443 11.167,216.173 11.244,216.106 11.417 C 216.054 11.554,215.832 11.667,215.614 11.667 C 215.397 11.667,215.083 11.817,214.917 12.000 C 214.751 12.183,214.432 12.333,214.209 12.333 C 213.942 12.333,213.772 12.448,213.715 12.667 C 213.667 12.850,213.496 13.000,213.334 13.000 C 213.173 13.000,212.941 13.120,212.819 13.267 C 212.697 13.414,212.425 13.600,212.215 13.680 C 212.005 13.760,211.833 13.939,211.833 14.079 C 211.833 14.222,211.688 14.333,211.500 14.333 C 211.306 14.333,211.167 14.444,211.167 14.599 C 211.167 14.745,211.017 14.904,210.833 14.952 C 210.650 15.000,210.500 15.138,210.500 15.258 C 210.500 15.379,210.350 15.525,210.167 15.583 C 209.983 15.642,209.833 15.834,209.833 16.011 C 209.833 16.188,209.721 16.333,209.583 16.333 C 209.446 16.333,209.333 16.417,209.333 16.520 C 209.333 16.836,208.429 18.154,208.208 18.161 C 208.094 18.164,208.000 18.354,208.000 18.582 C 208.000 18.817,207.855 19.088,207.667 19.205 C 207.483 19.320,207.333 19.548,207.333 19.712 C 207.333 19.876,207.223 20.053,207.088 20.105 C 206.953 20.156,206.795 20.454,206.736 20.766 C 206.677 21.078,206.529 21.333,206.406 21.333 C 206.277 21.333,206.138 21.598,206.078 21.958 C 205.965 22.638,205.937 22.714,205.579 23.333 C 205.447 23.563,205.337 23.985,205.336 24.271 C 205.334 24.558,205.221 24.886,205.083 25.000 C 204.903 25.150,204.833 25.545,204.833 26.418 C 204.833 27.488,204.795 27.638,204.500 27.715 C 204.184 27.798,204.167 27.942,204.167 30.548 C 204.167 33.154,204.150 33.299,203.833 33.382 C 203.252 33.534,203.350 38.333,203.934 38.333 C 204.124 38.333,204.167 38.846,204.167 41.099 C 204.167 43.724,204.184 43.869,204.500 43.952 C 204.795 44.029,204.833 44.179,204.833 45.249 C 204.833 46.121,204.903 46.517,205.083 46.667 C 205.221 46.781,205.334 47.109,205.336 47.395 C 205.337 47.682,205.447 48.104,205.579 48.333 C 205.937 48.952,205.965 49.028,206.078 49.708 C 206.138 50.069,206.277 50.333,206.406 50.333 C 206.529 50.333,206.677 50.589,206.736 50.901 C 206.795 51.213,206.953 51.510,207.088 51.562 C 207.223 51.614,207.333 51.791,207.333 51.955 C 207.333 52.119,207.483 52.347,207.667 52.461 C 207.855 52.579,208.000 52.850,208.000 53.085 C 208.000 53.313,208.094 53.502,208.208 53.503 C 208.323 53.505,208.670 53.918,208.980 54.420 C 209.289 54.922,209.608 55.333,209.688 55.333 C 209.768 55.333,209.833 55.443,209.833 55.577 C 209.833 55.712,209.983 55.902,210.167 56.000 C 210.350 56.098,210.500 56.288,210.500 56.423 C 210.500 56.557,210.620 56.667,210.766 56.667 C 210.912 56.667,211.070 56.817,211.118 57.000 C 211.167 57.184,211.346 57.333,211.519 57.333 C 211.692 57.333,211.833 57.448,211.833 57.587 C 211.833 57.727,212.005 57.907,212.215 57.987 C 212.425 58.067,212.697 58.252,212.819 58.399 C 212.941 58.546,213.173 58.667,213.334 58.667 C 213.496 58.667,213.667 58.817,213.715 59.000 C 213.772 59.218,213.942 59.333,214.209 59.333 C 214.432 59.333,214.751 59.483,214.917 59.667 C 215.083 59.850,215.397 60.000,215.614 60.000 C 215.832 60.000,216.054 60.112,216.106 60.250 C 216.173 60.423,216.443 60.500,216.981 60.500 C 217.569 60.500,217.819 60.582,218.000 60.833 C 218.374 61.352,227.448 61.352,227.917 60.833 C 228.116 60.613,228.430 60.500,228.841 60.500 C 229.241 60.500,229.499 60.411,229.560 60.250 C 229.614 60.109,229.863 60.000,230.130 60.000 C 230.391 60.000,230.765 59.850,230.962 59.667 C 231.158 59.483,231.473 59.333,231.660 59.333 C 231.889 59.333,232.000 59.224,232.000 59.000 C 232.000 58.787,232.111 58.667,232.308 58.667 C 232.477 58.667,232.751 58.517,232.917 58.333 C 233.083 58.150,233.352 58.000,233.515 58.000 C 233.678 58.000,233.858 57.850,233.917 57.667 C 233.975 57.483,234.089 57.333,234.170 57.333 C 234.363 57.333,235.167 56.529,235.167 56.337 C 235.167 56.256,235.317 56.142,235.500 56.083 C 235.683 56.025,235.833 55.833,235.833 55.655 C 235.833 55.478,235.938 55.333,236.067 55.333 C 236.196 55.333,236.380 55.107,236.476 54.831 C 236.572 54.555,236.767 54.284,236.909 54.230 C 237.051 54.176,237.167 53.998,237.167 53.835 C 237.167 53.672,237.317 53.500,237.500 53.452 C 237.727 53.392,237.833 53.224,237.833 52.927 C 237.833 52.686,237.946 52.446,238.083 52.394 C 238.221 52.341,238.333 52.164,238.333 52.002 C 238.333 51.839,238.483 51.666,238.667 51.618 C 238.919 51.552,239.000 51.391,239.000 50.952 C 239.000 50.512,239.081 50.351,239.333 50.285 C 239.595 50.216,239.667 50.058,239.667 49.541 C 239.667 49.097,239.774 48.788,240.000 48.583 C 240.232 48.373,240.333 48.070,240.333 47.583 C 240.333 47.097,240.434 46.794,240.667 46.583 C 240.938 46.338,241.000 46.070,241.000 45.141 C 241.000 44.288,241.057 44.000,241.227 44.000 C 241.535 44.000,241.667 42.922,241.667 40.411 C 241.667 38.750,241.713 38.351,241.917 38.273 C 242.122 38.194,242.167 37.763,242.167 35.833 C 242.167 33.904,242.122 33.473,241.917 33.394 C 241.713 33.316,241.667 32.917,241.667 31.255 C 241.667 28.744,241.535 27.667,241.227 27.667 C 241.057 27.667,241.000 27.374,241.000 26.498 C 241.000 25.536,240.941 25.280,240.667 25.045 C 240.424 24.837,240.333 24.553,240.333 24.003 C 240.333 23.427,240.254 23.197,240.000 23.039 C 239.755 22.886,239.667 22.650,239.667 22.150 C 239.667 21.609,239.598 21.451,239.333 21.382 C 239.081 21.316,239.000 21.154,239.000 20.715 C 239.000 20.276,238.919 20.114,238.667 20.048 C 238.483 20.000,238.333 19.828,238.333 19.665 C 238.333 19.502,238.221 19.326,238.083 19.273 C 237.946 19.220,237.833 18.980,237.833 18.740 C 237.833 18.442,237.727 18.274,237.500 18.215 C 237.317 18.167,237.167 17.995,237.167 17.832 C 237.167 17.669,237.051 17.491,236.909 17.437 C 236.767 17.382,236.572 17.112,236.476 16.836 C 236.380 16.559,236.196 16.333,236.067 16.333 C 235.938 16.333,235.833 16.188,235.833 16.011 C 235.833 15.834,235.683 15.642,235.500 15.583 C 235.317 15.525,235.167 15.411,235.167 15.330 C 235.167 15.137,234.363 14.333,234.170 14.333 C 234.089 14.333,233.975 14.183,233.917 14.000 C 233.858 13.817,233.703 13.667,233.572 13.667 C 233.441 13.667,233.183 13.517,233.000 13.333 C 232.817 13.150,232.517 13.000,232.333 13.000 C 232.111 13.000,232.000 12.889,232.000 12.667 C 232.000 12.442,231.889 12.333,231.660 12.333 C 231.473 12.333,231.158 12.183,230.962 12.000 C 230.765 11.817,230.391 11.667,230.130 11.667 C 229.863 11.667,229.614 11.558,229.560 11.417 C 229.499 11.256,229.241 11.167,228.841 11.167 C 228.430 11.167,228.116 11.053,227.917 10.833 C 227.629 10.515,227.403 10.500,222.928 10.500 C 218.431 10.500,218.230 10.514,218.000 10.833 M264.372 10.833 C 264.210 11.093,263.983 11.167,263.350 11.167 C 262.780 11.167,262.507 11.242,262.440 11.417 C 262.387 11.554,262.166 11.667,261.948 11.667 C 261.730 11.667,261.416 11.817,261.250 12.000 C 261.084 12.183,260.765 12.333,260.542 12.333 C 260.276 12.333,260.105 12.448,260.048 12.667 C 260.000 12.850,259.829 13.000,259.668 13.000 C 259.506 13.000,259.274 13.120,259.152 13.267 C 259.030 13.414,258.759 13.600,258.549 13.680 C 258.338 13.760,258.167 13.939,258.167 14.079 C 258.167 14.222,258.021 14.333,257.833 14.333 C 257.639 14.333,257.500 14.444,257.500 14.599 C 257.500 14.745,257.350 14.904,257.167 14.952 C 256.983 15.000,256.833 15.125,256.833 15.229 C 256.833 15.334,256.683 15.513,256.500 15.628 C 256.317 15.742,256.167 15.948,256.167 16.085 C 256.167 16.221,256.090 16.333,255.997 16.333 C 255.904 16.333,255.703 16.596,255.550 16.917 C 255.397 17.237,255.210 17.500,255.136 17.500 C 255.061 17.500,255.000 17.650,255.000 17.833 C 255.000 18.056,254.889 18.167,254.667 18.167 C 254.423 18.167,254.333 18.278,254.333 18.582 C 254.333 18.817,254.188 19.088,254.000 19.205 C 253.817 19.320,253.667 19.548,253.667 19.712 C 253.667 19.876,253.556 20.053,253.421 20.105 C 253.286 20.156,253.128 20.454,253.069 20.766 C 253.009 21.088,252.863 21.333,252.731 21.333 C 252.604 21.333,252.487 21.465,252.471 21.625 C 252.456 21.785,252.432 22.029,252.418 22.167 C 252.372 22.637,252.144 23.167,251.989 23.167 C 251.903 23.167,251.833 23.493,251.833 23.891 C 251.833 24.403,251.736 24.703,251.500 24.917 C 251.225 25.165,251.167 25.430,251.167 26.423 C 251.167 27.488,251.128 27.638,250.833 27.715 C 250.517 27.798,250.500 27.942,250.500 30.568 C 250.500 32.821,250.457 33.333,250.268 33.333 C 249.902 33.333,249.833 33.726,249.833 35.833 C 249.833 37.941,249.902 38.333,250.268 38.333 C 250.457 38.333,250.500 38.846,250.500 41.099 C 250.500 43.724,250.517 43.869,250.833 43.952 C 251.128 44.029,251.167 44.179,251.167 45.244 C 251.167 46.237,251.225 46.501,251.500 46.750 C 251.727 46.956,251.833 47.263,251.833 47.716 C 251.833 48.129,251.933 48.453,252.096 48.572 C 252.241 48.678,252.381 49.024,252.406 49.341 C 252.432 49.657,252.463 50.010,252.476 50.125 C 252.489 50.240,252.604 50.333,252.731 50.333 C 252.863 50.333,253.009 50.579,253.069 50.901 C 253.128 51.213,253.286 51.510,253.421 51.562 C 253.556 51.614,253.667 51.791,253.667 51.955 C 253.667 52.119,253.817 52.347,254.000 52.461 C 254.188 52.579,254.333 52.850,254.333 53.085 C 254.333 53.389,254.423 53.500,254.667 53.500 C 254.889 53.500,255.000 53.611,255.000 53.833 C 255.000 54.017,255.061 54.167,255.136 54.167 C 255.210 54.167,255.397 54.429,255.550 54.750 C 255.703 55.071,255.904 55.333,255.997 55.333 C 256.090 55.333,256.167 55.443,256.167 55.577 C 256.167 55.712,256.317 55.902,256.500 56.000 C 256.683 56.098,256.833 56.288,256.833 56.423 C 256.833 56.557,256.953 56.667,257.099 56.667 C 257.245 56.667,257.404 56.817,257.452 57.000 C 257.500 57.184,257.679 57.333,257.853 57.333 C 258.025 57.333,258.167 57.448,258.167 57.587 C 258.167 57.727,258.338 57.907,258.549 57.987 C 258.759 58.067,259.030 58.252,259.152 58.399 C 259.274 58.546,259.506 58.667,259.668 58.667 C 259.829 58.667,260.000 58.817,260.048 59.000 C 260.105 59.218,260.276 59.333,260.542 59.333 C 260.765 59.333,261.084 59.483,261.250 59.667 C 261.416 59.850,261.730 60.000,261.948 60.000 C 262.166 60.000,262.387 60.112,262.440 60.250 C 262.507 60.425,262.780 60.500,263.350 60.500 C 263.983 60.500,264.210 60.574,264.372 60.833 C 264.696 61.352,273.781 61.352,274.250 60.833 C 274.440 60.624,274.763 60.500,275.121 60.500 C 275.434 60.500,275.803 60.388,275.940 60.250 C 276.078 60.113,276.358 60.000,276.564 60.000 C 276.769 60.000,277.098 59.850,277.295 59.667 C 277.492 59.483,277.806 59.333,277.993 59.333 C 278.222 59.333,278.333 59.224,278.333 59.000 C 278.333 58.778,278.444 58.667,278.667 58.667 C 278.850 58.667,279.150 58.517,279.333 58.333 C 279.517 58.150,279.786 58.000,279.932 58.000 C 280.078 58.000,280.237 57.850,280.285 57.667 C 280.333 57.483,280.444 57.333,280.531 57.333 C 280.772 57.333,282.167 55.824,282.167 55.562 C 282.167 55.436,282.272 55.333,282.400 55.333 C 282.529 55.333,282.713 55.107,282.809 54.831 C 282.905 54.555,283.100 54.284,283.242 54.230 C 283.384 54.176,283.500 53.998,283.500 53.835 C 283.500 53.672,283.650 53.500,283.833 53.452 C 284.057 53.393,284.167 53.224,284.167 52.938 C 284.167 52.682,284.300 52.440,284.500 52.333 C 284.683 52.235,284.833 52.053,284.833 51.929 C 284.833 51.804,284.946 51.659,285.083 51.606 C 285.238 51.547,285.333 51.293,285.333 50.941 C 285.333 50.512,285.415 50.351,285.667 50.285 C 285.931 50.216,286.000 50.058,286.000 49.517 C 286.000 49.017,286.088 48.781,286.333 48.628 C 286.587 48.470,286.667 48.239,286.667 47.664 C 286.667 47.114,286.758 46.830,287.000 46.622 C 287.274 46.387,287.333 46.130,287.333 45.168 C 287.333 44.293,287.390 44.000,287.561 44.000 C 287.868 44.000,288.000 42.922,288.000 40.411 C 288.000 38.750,288.047 38.351,288.250 38.273 C 288.456 38.194,288.500 37.763,288.500 35.833 C 288.500 33.904,288.456 33.473,288.250 33.394 C 288.047 33.316,288.000 32.917,288.000 31.255 C 288.000 28.744,287.868 27.667,287.561 27.667 C 287.390 27.667,287.333 27.374,287.333 26.498 C 287.333 25.536,287.274 25.280,287.000 25.045 C 286.758 24.837,286.667 24.553,286.667 24.003 C 286.667 23.427,286.587 23.197,286.333 23.039 C 286.088 22.886,286.000 22.650,286.000 22.150 C 286.000 21.609,285.931 21.451,285.667 21.382 C 285.415 21.316,285.333 21.154,285.333 20.725 C 285.333 20.373,285.238 20.120,285.083 20.060 C 284.946 20.008,284.833 19.863,284.833 19.738 C 284.833 19.614,284.683 19.431,284.500 19.333 C 284.300 19.226,284.167 18.984,284.167 18.729 C 284.167 18.442,284.057 18.273,283.833 18.215 C 283.650 18.167,283.500 17.995,283.500 17.832 C 283.500 17.669,283.384 17.491,283.242 17.437 C 283.100 17.382,282.905 17.112,282.809 16.836 C 282.713 16.559,282.529 16.333,282.400 16.333 C 282.272 16.333,282.167 16.230,282.167 16.104 C 282.167 15.843,280.772 14.333,280.531 14.333 C 280.444 14.333,280.333 14.183,280.285 14.000 C 280.237 13.817,280.078 13.667,279.932 13.667 C 279.786 13.667,279.517 13.517,279.333 13.333 C 279.150 13.150,278.850 13.000,278.667 13.000 C 278.444 13.000,278.333 12.889,278.333 12.667 C 278.333 12.462,278.221 12.332,278.042 12.330 C 277.881 12.328,277.563 12.179,277.333 12.000 C 277.104 11.821,276.753 11.672,276.554 11.670 C 276.354 11.668,276.078 11.554,275.940 11.417 C 275.803 11.279,275.439 11.167,275.132 11.167 C 274.780 11.167,274.469 11.044,274.289 10.833 C 273.845 10.315,264.696 10.315,264.372 10.833 M311.548 10.833 C 311.475 11.114,311.321 11.167,310.582 11.167 C 309.969 11.167,309.674 11.240,309.610 11.407 C 309.559 11.540,309.251 11.698,308.925 11.759 C 308.585 11.823,308.333 11.969,308.333 12.102 C 308.333 12.229,308.197 12.333,308.031 12.333 C 307.865 12.333,307.569 12.483,307.372 12.667 C 307.175 12.850,306.891 13.000,306.741 13.000 C 306.591 13.000,306.430 13.150,306.382 13.333 C 306.333 13.518,306.154 13.667,305.981 13.667 C 305.778 13.667,305.667 13.785,305.667 14.000 C 305.667 14.183,305.589 14.333,305.493 14.333 C 305.397 14.333,305.210 14.427,305.077 14.542 C 304.204 15.291,303.833 15.701,303.833 15.918 C 303.833 16.056,303.684 16.167,303.500 16.167 C 303.278 16.167,303.167 16.278,303.167 16.500 C 303.167 16.688,303.056 16.833,302.911 16.833 C 302.771 16.833,302.608 16.965,302.549 17.125 C 302.490 17.285,302.342 17.477,302.221 17.550 C 302.099 17.623,302.000 17.830,302.000 18.010 C 302.000 18.190,301.850 18.465,301.667 18.622 C 301.483 18.779,301.333 19.041,301.333 19.204 C 301.333 19.367,301.229 19.500,301.101 19.500 C 300.846 19.500,300.667 19.850,300.667 20.347 C 300.667 20.523,300.562 20.667,300.434 20.667 C 300.180 20.667,300.000 21.017,300.000 21.514 C 300.000 21.689,299.850 21.983,299.667 22.167 C 299.455 22.378,299.333 22.722,299.333 23.107 C 299.333 23.466,299.226 23.791,299.071 23.905 C 298.902 24.029,298.774 24.472,298.713 25.147 C 298.653 25.802,298.533 26.228,298.392 26.282 C 298.225 26.347,298.167 26.771,298.167 27.929 C 298.167 29.318,298.130 29.508,297.833 29.667 C 297.504 29.843,297.500 30.016,297.500 45.839 L 297.500 61.833 298.932 61.833 C 300.224 61.833,300.373 61.801,300.452 61.500 C 300.518 61.247,300.679 61.167,301.118 61.167 C 301.558 61.167,301.719 61.086,301.785 60.833 C 301.853 60.572,302.012 60.500,302.519 60.500 C 302.984 60.500,303.167 60.429,303.167 60.250 C 303.167 60.083,303.333 60.000,303.665 60.000 C 303.983 60.000,304.239 59.879,304.372 59.667 C 304.487 59.483,304.706 59.333,304.860 59.333 C 305.703 59.333,305.667 59.668,305.667 51.899 L 305.667 44.667 313.231 44.667 C 320.654 44.667,320.796 44.660,320.882 44.333 C 320.955 44.052,321.109 44.000,321.864 44.000 C 322.356 44.000,322.907 43.898,323.088 43.774 C 323.269 43.649,323.698 43.496,324.042 43.433 C 324.425 43.363,324.667 43.224,324.667 43.076 C 324.667 42.928,324.830 42.833,325.083 42.833 C 325.313 42.833,325.650 42.683,325.833 42.500 C 326.017 42.317,326.279 42.167,326.417 42.167 C 326.556 42.167,326.667 42.019,326.667 41.833 C 326.667 41.616,326.778 41.500,326.986 41.500 C 327.483 41.500,327.833 41.320,327.833 41.066 C 327.833 40.938,327.983 40.833,328.167 40.833 C 328.389 40.833,328.500 40.722,328.500 40.500 C 328.500 40.278,328.611 40.167,328.833 40.167 C 329.017 40.167,329.167 40.059,329.167 39.928 C 329.167 39.797,329.317 39.642,329.500 39.583 C 329.683 39.525,329.833 39.333,329.833 39.155 C 329.833 38.978,329.942 38.833,330.076 38.833 C 330.221 38.833,330.362 38.599,330.428 38.250 C 330.494 37.895,330.634 37.667,330.784 37.667 C 330.920 37.667,331.069 37.522,331.115 37.345 C 331.162 37.168,331.305 36.983,331.433 36.933 C 331.562 36.884,331.667 36.625,331.667 36.358 C 331.667 36.012,331.763 35.847,332.000 35.785 C 332.253 35.719,332.333 35.558,332.333 35.118 C 332.333 34.679,332.414 34.518,332.667 34.452 C 332.929 34.383,333.000 34.224,333.000 33.708 C 333.000 33.263,333.107 32.954,333.333 32.750 C 333.617 32.493,333.667 32.237,333.667 31.034 C 333.667 29.892,333.722 29.580,333.952 29.412 C 334.426 29.064,334.474 26.974,334.018 26.518 C 333.708 26.208,333.667 25.973,333.667 24.501 C 333.667 23.017,333.631 22.814,333.333 22.628 C 333.074 22.466,333.000 22.239,333.000 21.611 C 333.000 20.942,332.942 20.787,332.667 20.715 C 332.414 20.649,332.333 20.488,332.333 20.048 C 332.333 19.609,332.253 19.448,332.000 19.382 C 331.750 19.316,331.667 19.154,331.667 18.731 C 331.667 18.340,331.590 18.167,331.417 18.167 C 331.279 18.167,331.167 18.058,331.167 17.924 C 331.167 17.791,330.979 17.494,330.750 17.265 C 330.521 17.036,330.333 16.733,330.333 16.591 C 330.333 16.449,330.221 16.333,330.083 16.333 C 329.941 16.333,329.833 16.183,329.833 15.984 C 329.833 15.776,329.699 15.600,329.500 15.548 C 329.317 15.500,329.167 15.362,329.167 15.242 C 329.167 15.121,329.017 14.975,328.833 14.917 C 328.650 14.858,328.500 14.703,328.500 14.572 C 328.500 14.441,328.380 14.333,328.234 14.333 C 328.088 14.333,327.930 14.183,327.882 14.000 C 327.834 13.817,327.693 13.667,327.570 13.667 C 327.446 13.667,327.265 13.517,327.167 13.333 C 327.050 13.115,326.818 13.000,326.494 13.000 C 326.111 13.000,326.000 12.925,326.000 12.667 C 326.000 12.442,325.889 12.333,325.660 12.333 C 325.473 12.333,325.154 12.179,324.952 11.991 C 324.748 11.801,324.450 11.685,324.280 11.729 C 324.112 11.773,323.832 11.665,323.654 11.488 C 323.438 11.271,323.102 11.167,322.623 11.167 C 322.094 11.167,321.861 11.082,321.705 10.833 C 321.380 10.312,311.685 10.312,311.548 10.833 M356.372 10.833 C 356.219 11.078,355.983 11.167,355.487 11.167 C 355.107 11.167,354.700 11.276,354.560 11.417 C 354.422 11.554,354.130 11.667,353.911 11.667 C 353.682 11.667,353.435 11.809,353.333 12.000 C 353.217 12.218,352.984 12.333,352.661 12.333 C 352.335 12.333,352.167 12.418,352.167 12.581 C 352.167 12.717,351.904 12.939,351.583 13.073 C 351.262 13.207,351.000 13.395,351.000 13.491 C 351.000 13.588,350.843 13.667,350.651 13.667 C 350.442 13.667,350.267 13.801,350.215 14.000 C 350.167 14.183,350.017 14.333,349.882 14.333 C 349.746 14.333,349.596 14.483,349.548 14.667 C 349.500 14.850,349.398 15.000,349.321 15.000 C 349.097 15.000,348.333 15.828,348.333 16.071 C 348.333 16.194,348.183 16.334,348.000 16.382 C 347.801 16.434,347.667 16.609,347.667 16.816 C 347.667 17.007,347.517 17.258,347.333 17.372 C 347.150 17.487,347.000 17.703,347.000 17.854 C 347.000 18.005,346.850 18.167,346.667 18.215 C 346.470 18.266,346.333 18.442,346.333 18.645 C 346.333 18.833,346.170 19.139,345.970 19.325 C 345.771 19.511,345.658 19.713,345.719 19.775 C 345.781 19.836,345.682 19.991,345.499 20.120 C 345.295 20.262,345.167 20.542,345.167 20.843 C 345.167 21.151,345.080 21.333,344.934 21.333 C 344.635 21.333,344.500 21.699,344.500 22.514 C 344.500 23.056,344.443 23.167,344.167 23.167 C 343.874 23.167,343.833 23.278,343.833 24.072 C 343.833 24.831,343.779 24.995,343.500 25.083 C 343.206 25.177,343.167 25.336,343.167 26.428 C 343.167 27.371,343.112 27.667,342.936 27.667 C 342.563 27.667,342.505 28.230,342.502 31.875 C 342.500 34.843,342.464 35.333,342.249 35.333 C 342.027 35.333,342.003 36.870,342.041 48.542 L 342.083 61.750 343.542 61.798 C 344.914 61.843,345.000 61.826,345.000 61.506 C 345.000 61.225,345.107 61.167,345.627 61.167 C 346.073 61.167,346.313 61.071,346.461 60.833 C 346.592 60.624,346.850 60.500,347.156 60.500 C 347.424 60.500,347.755 60.387,347.893 60.250 C 348.030 60.112,348.288 60.000,348.466 60.000 C 348.643 60.000,348.967 59.863,349.186 59.695 C 349.404 59.527,349.715 59.342,349.875 59.284 C 350.148 59.184,350.167 58.545,350.167 49.089 L 350.167 39.000 361.250 39.000 L 372.333 39.000 372.333 39.649 C 372.333 40.072,372.246 40.331,372.083 40.394 C 371.882 40.471,371.833 40.845,371.833 42.309 C 371.833 43.988,371.808 44.135,371.500 44.215 C 371.213 44.290,371.167 44.442,371.167 45.316 C 371.167 46.150,371.107 46.368,370.833 46.539 C 370.613 46.676,370.500 46.927,370.500 47.279 C 370.500 47.664,370.408 47.840,370.167 47.917 C 369.919 47.995,369.833 48.169,369.833 48.595 C 369.833 48.996,369.758 49.167,369.579 49.167 C 369.439 49.167,369.254 49.354,369.167 49.583 C 369.080 49.813,368.941 50.000,368.858 50.000 C 368.776 50.000,368.663 50.225,368.608 50.500 C 368.550 50.793,368.403 51.000,368.254 51.000 C 368.111 51.000,368.000 51.146,368.000 51.333 C 368.000 51.556,367.889 51.667,367.667 51.667 C 367.451 51.667,367.333 51.778,367.333 51.981 C 367.333 52.154,367.184 52.333,367.000 52.382 C 366.817 52.430,366.667 52.588,366.667 52.734 C 366.667 52.880,366.547 53.000,366.401 53.000 C 366.255 53.000,366.096 53.150,366.048 53.333 C 366.000 53.517,365.855 53.667,365.725 53.667 C 365.596 53.667,365.446 53.779,365.394 53.917 C 365.341 54.054,365.207 54.167,365.097 54.167 C 364.987 54.167,364.735 54.317,364.538 54.500 C 364.342 54.683,364.058 54.833,363.908 54.833 C 363.758 54.833,363.596 54.983,363.548 55.167 C 363.483 55.417,363.321 55.500,362.897 55.500 C 362.444 55.500,362.333 55.566,362.333 55.833 C 362.333 56.056,362.222 56.167,362.000 56.167 C 361.707 56.167,361.667 56.278,361.667 57.083 C 361.667 57.787,361.725 58.000,361.917 58.000 C 362.072 58.000,362.167 58.157,362.167 58.417 C 362.167 58.646,362.317 58.983,362.500 59.167 C 362.683 59.350,362.833 59.695,362.833 59.932 C 362.833 60.220,362.942 60.393,363.158 60.449 C 363.391 60.510,363.496 60.705,363.533 61.142 L 363.583 61.750 364.833 61.801 C 366.377 61.864,367.167 61.731,367.167 61.409 C 367.167 61.242,367.353 61.167,367.766 61.167 C 368.224 61.167,368.385 61.089,368.452 60.833 C 368.500 60.650,368.624 60.501,368.728 60.503 C 369.091 60.508,370.487 59.748,370.494 59.542 C 370.497 59.427,370.620 59.333,370.766 59.333 C 370.912 59.333,371.070 59.183,371.118 59.000 C 371.166 58.817,371.262 58.667,371.330 58.667 C 371.523 58.667,373.667 56.530,373.667 56.337 C 373.667 56.243,373.786 56.167,373.932 56.167 C 374.078 56.167,374.237 56.017,374.285 55.833 C 374.333 55.650,374.475 55.500,374.600 55.500 C 374.725 55.500,374.873 55.318,374.929 55.095 C 374.984 54.873,375.136 54.650,375.265 54.601 C 375.396 54.550,375.500 54.286,375.500 54.005 C 375.500 53.611,375.573 53.500,375.833 53.500 C 376.019 53.500,376.167 53.389,376.167 53.250 C 376.167 53.112,376.317 52.850,376.500 52.667 C 376.683 52.483,376.833 52.183,376.833 52.000 C 376.833 51.816,376.944 51.667,377.081 51.667 C 377.242 51.667,377.367 51.431,377.436 51.000 C 377.496 50.624,377.636 50.333,377.757 50.333 C 377.876 50.333,378.020 50.043,378.081 49.680 C 378.142 49.320,378.298 48.985,378.429 48.935 C 378.589 48.874,378.667 48.583,378.667 48.045 C 378.667 47.427,378.742 47.200,379.000 47.039 C 379.284 46.861,379.333 46.650,379.333 45.608 C 379.333 44.597,379.391 44.333,379.667 44.083 C 379.970 43.809,380.000 43.570,380.000 41.431 C 380.000 39.261,380.026 39.064,380.333 38.872 C 380.645 38.677,380.667 38.483,380.667 35.833 C 380.667 33.183,380.645 32.990,380.333 32.795 C 380.025 32.602,380.000 32.406,380.000 30.167 C 380.000 27.927,379.975 27.731,379.667 27.539 C 379.382 27.361,379.333 27.150,379.333 26.083 C 379.333 25.017,379.285 24.806,379.000 24.628 C 378.742 24.467,378.667 24.239,378.667 23.621 C 378.667 23.084,378.589 22.793,378.429 22.732 C 378.298 22.682,378.142 22.346,378.081 21.987 C 378.020 21.623,377.876 21.333,377.757 21.333 C 377.636 21.333,377.496 21.043,377.436 20.667 C 377.367 20.235,377.242 20.000,377.081 20.000 C 376.944 20.000,376.833 19.851,376.833 19.667 C 376.833 19.483,376.683 19.183,376.500 19.000 C 376.317 18.817,376.167 18.554,376.167 18.417 C 376.167 18.278,376.019 18.167,375.833 18.167 C 375.574 18.167,375.500 18.056,375.500 17.668 C 375.500 17.350,375.379 17.094,375.167 16.961 C 374.983 16.847,374.833 16.662,374.833 16.552 C 374.833 16.441,374.734 16.290,374.612 16.217 C 374.491 16.143,374.343 15.952,374.284 15.792 C 374.225 15.631,374.062 15.500,373.922 15.500 C 373.782 15.500,373.667 15.387,373.667 15.250 C 373.667 15.112,373.547 15.000,373.401 15.000 C 373.255 15.000,373.096 14.850,373.048 14.667 C 373.000 14.482,372.821 14.333,372.647 14.333 C 372.444 14.333,372.333 14.215,372.333 14.000 C 372.333 13.815,372.222 13.667,372.083 13.667 C 371.946 13.667,371.683 13.517,371.500 13.333 C 371.317 13.150,371.025 13.000,370.853 13.000 C 370.679 13.000,370.500 12.851,370.452 12.667 C 370.404 12.483,370.238 12.333,370.084 12.333 C 369.929 12.333,369.612 12.183,369.379 12.000 C 369.146 11.817,368.787 11.667,368.581 11.667 C 368.376 11.667,368.114 11.554,368.000 11.417 C 367.886 11.279,367.539 11.167,367.230 11.167 C 366.889 11.167,366.535 11.035,366.333 10.833 C 365.815 10.315,356.696 10.315,356.372 10.833 M223.408 17.100 C 223.539 17.279,223.969 17.396,224.718 17.456 C 225.505 17.519,225.833 17.613,225.833 17.773 C 225.833 17.920,226.032 18.000,226.397 18.000 C 226.821 18.000,226.983 18.083,227.048 18.333 C 227.096 18.517,227.255 18.667,227.401 18.667 C 227.547 18.667,227.812 18.798,227.990 18.958 C 228.168 19.119,228.579 19.475,228.903 19.750 C 229.228 20.025,229.495 20.344,229.497 20.458 C 229.498 20.573,229.637 20.804,229.804 20.971 C 229.972 21.138,230.157 21.401,230.216 21.554 C 230.275 21.708,230.438 21.833,230.578 21.833 C 230.719 21.833,230.833 21.977,230.833 22.153 C 230.833 22.650,231.013 23.000,231.268 23.000 C 231.402 23.000,231.500 23.169,231.500 23.399 C 231.500 23.618,231.603 23.837,231.729 23.886 C 231.855 23.934,232.010 24.321,232.074 24.746 C 232.138 25.174,232.296 25.560,232.428 25.611 C 232.591 25.673,232.667 25.967,232.667 26.533 C 232.667 27.213,232.725 27.380,232.987 27.448 C 233.277 27.524,233.312 27.726,233.362 29.611 C 233.409 31.383,233.460 31.715,233.708 31.854 C 233.973 32.001,234.000 32.371,234.000 35.833 C 234.000 39.295,233.973 39.665,233.708 39.813 C 233.460 39.952,233.409 40.284,233.362 42.055 C 233.312 43.941,233.277 44.143,232.987 44.218 C 232.725 44.287,232.667 44.454,232.667 45.133 C 232.667 45.700,232.591 45.993,232.428 46.056 C 232.296 46.106,232.138 46.492,232.074 46.920 C 232.010 47.345,231.855 47.733,231.729 47.781 C 231.603 47.829,231.500 48.048,231.500 48.268 C 231.500 48.498,231.402 48.667,231.268 48.667 C 231.013 48.667,230.833 49.017,230.833 49.514 C 230.833 49.722,230.717 49.833,230.500 49.833 C 230.278 49.833,230.167 49.944,230.167 50.167 C 230.167 50.350,230.088 50.500,229.991 50.500 C 229.895 50.500,229.707 50.763,229.573 51.083 C 229.439 51.404,229.217 51.667,229.081 51.667 C 228.945 51.667,228.833 51.777,228.833 51.912 C 228.833 52.048,228.608 52.274,228.333 52.417 C 228.058 52.559,227.833 52.748,227.833 52.838 C 227.833 52.927,227.646 53.000,227.417 53.000 C 227.111 53.000,227.000 53.089,227.000 53.333 C 227.000 53.603,226.889 53.667,226.417 53.667 C 226.031 53.667,225.833 53.745,225.833 53.897 C 225.833 54.063,225.524 54.148,224.730 54.198 C 223.945 54.248,223.567 54.350,223.420 54.551 C 223.161 54.905,222.564 54.918,222.370 54.572 C 222.270 54.394,221.887 54.285,221.154 54.228 C 220.469 54.175,220.037 54.059,219.951 53.906 C 219.875 53.770,219.568 53.667,219.242 53.667 C 218.778 53.667,218.667 53.602,218.667 53.333 C 218.667 53.126,218.556 53.000,218.373 53.000 C 218.212 53.000,217.987 52.850,217.872 52.667 C 217.758 52.483,217.579 52.333,217.475 52.333 C 217.217 52.333,216.171 51.300,216.168 51.043 C 216.167 50.929,216.017 50.742,215.833 50.628 C 215.650 50.513,215.500 50.288,215.500 50.127 C 215.500 49.965,215.393 49.833,215.263 49.833 C 215.133 49.833,214.976 49.603,214.914 49.322 C 214.852 49.041,214.696 48.770,214.568 48.721 C 214.439 48.671,214.333 48.492,214.333 48.321 C 214.333 48.151,214.183 47.931,214.000 47.833 C 213.753 47.701,213.667 47.484,213.667 46.996 C 213.667 46.517,213.575 46.279,213.333 46.128 C 213.074 45.966,213.000 45.739,213.000 45.111 C 213.000 44.442,212.942 44.287,212.667 44.215 C 212.358 44.134,212.333 43.988,212.333 42.267 C 212.333 40.598,212.299 40.382,212.000 40.167 C 211.683 39.938,211.667 39.735,211.667 36.003 C 211.667 32.261,211.682 32.071,212.000 31.872 C 212.304 31.682,212.333 31.483,212.333 29.582 C 212.333 27.611,212.351 27.500,212.667 27.500 C 212.958 27.500,213.000 27.389,213.000 26.623 C 213.000 25.927,213.069 25.704,213.333 25.539 C 213.575 25.387,213.667 25.150,213.667 24.671 C 213.667 24.182,213.753 23.966,214.000 23.833 C 214.183 23.735,214.333 23.516,214.333 23.345 C 214.333 23.175,214.439 22.995,214.568 22.946 C 214.696 22.896,214.852 22.626,214.914 22.345 C 214.976 22.063,215.133 21.833,215.263 21.833 C 215.393 21.833,215.500 21.701,215.500 21.540 C 215.500 21.379,215.650 21.153,215.833 21.039 C 216.017 20.924,216.166 20.737,216.165 20.624 C 216.164 20.322,218.032 18.667,218.375 18.667 C 218.555 18.667,218.667 18.540,218.667 18.333 C 218.667 18.064,218.778 18.000,219.242 18.000 C 219.558 18.000,219.877 17.899,219.950 17.775 C 220.027 17.644,220.536 17.504,221.161 17.440 C 221.852 17.370,222.288 17.242,222.377 17.082 C 222.561 16.754,223.163 16.764,223.408 17.100 M269.742 17.100 C 269.873 17.279,270.302 17.396,271.052 17.456 C 271.838 17.519,272.167 17.613,272.167 17.773 C 272.167 17.920,272.366 18.000,272.731 18.000 C 273.154 18.000,273.316 18.083,273.382 18.333 C 273.430 18.517,273.588 18.667,273.734 18.667 C 273.880 18.667,274.145 18.798,274.323 18.958 C 274.501 19.119,274.912 19.475,275.236 19.750 C 275.561 20.025,275.828 20.344,275.830 20.458 C 275.832 20.573,275.970 20.804,276.138 20.971 C 276.305 21.138,276.490 21.401,276.549 21.554 C 276.608 21.708,276.771 21.833,276.911 21.833 C 277.052 21.833,277.167 21.977,277.167 22.153 C 277.167 22.650,277.346 23.000,277.601 23.000 C 277.731 23.000,277.833 23.166,277.833 23.377 C 277.833 23.584,277.983 23.847,278.167 23.961 C 278.408 24.112,278.500 24.350,278.500 24.826 C 278.500 25.249,278.593 25.535,278.760 25.629 C 278.916 25.716,279.022 26.005,279.025 26.346 C 279.032 27.144,279.152 27.500,279.414 27.500 C 279.589 27.500,279.652 27.974,279.695 29.595 C 279.742 31.382,279.793 31.715,280.042 31.854 C 280.306 32.001,280.333 32.371,280.333 35.833 C 280.333 39.295,280.306 39.665,280.042 39.813 C 279.793 39.952,279.742 40.285,279.695 42.071 C 279.652 43.693,279.589 44.167,279.414 44.167 C 279.152 44.167,279.032 44.523,279.025 45.321 C 279.022 45.661,278.916 45.951,278.760 46.038 C 278.593 46.131,278.500 46.418,278.500 46.840 C 278.500 47.317,278.408 47.554,278.167 47.705 C 277.983 47.820,277.833 48.083,277.833 48.290 C 277.833 48.501,277.731 48.667,277.601 48.667 C 277.346 48.667,277.167 49.017,277.167 49.514 C 277.167 49.690,277.052 49.833,276.911 49.833 C 276.771 49.833,276.608 49.959,276.549 50.112 C 276.490 50.266,276.305 50.528,276.138 50.696 C 275.970 50.863,275.832 51.094,275.830 51.208 C 275.828 51.323,275.561 51.642,275.236 51.917 C 274.912 52.192,274.501 52.548,274.323 52.708 C 274.145 52.869,273.850 53.000,273.667 53.000 C 273.444 53.000,273.333 53.111,273.333 53.333 C 273.333 53.603,273.222 53.667,272.750 53.667 C 272.364 53.667,272.167 53.745,272.167 53.897 C 272.167 54.063,271.858 54.148,271.063 54.198 C 270.278 54.248,269.900 54.350,269.753 54.551 C 269.494 54.905,269.013 54.915,268.761 54.571 C 268.636 54.400,268.193 54.275,267.493 54.213 C 266.851 54.157,266.363 54.027,266.283 53.893 C 266.210 53.768,265.891 53.667,265.575 53.667 C 265.111 53.667,265.000 53.602,265.000 53.333 C 265.000 53.111,264.889 53.000,264.667 53.000 C 264.483 53.000,264.333 52.893,264.333 52.761 C 264.333 52.630,264.165 52.470,263.958 52.406 C 263.503 52.265,262.504 51.330,262.502 51.043 C 262.501 50.929,262.350 50.742,262.167 50.628 C 261.983 50.513,261.833 50.288,261.833 50.127 C 261.833 49.965,261.727 49.833,261.597 49.833 C 261.466 49.833,261.309 49.603,261.248 49.322 C 261.186 49.041,261.030 48.770,260.901 48.721 C 260.772 48.671,260.667 48.492,260.667 48.321 C 260.667 48.151,260.517 47.931,260.333 47.833 C 260.086 47.701,260.000 47.484,260.000 46.996 C 260.000 46.517,259.909 46.279,259.667 46.128 C 259.402 45.963,259.333 45.739,259.333 45.043 C 259.333 44.278,259.291 44.167,259.000 44.167 C 258.687 44.167,258.667 44.056,258.667 42.321 C 258.667 40.903,258.609 40.418,258.417 40.226 C 258.208 40.018,258.167 39.313,258.167 36.009 C 258.167 32.685,258.207 32.007,258.417 31.833 C 258.614 31.669,258.667 31.193,258.667 29.563 C 258.667 27.611,258.685 27.500,259.000 27.500 C 259.291 27.500,259.333 27.389,259.333 26.623 C 259.333 25.927,259.402 25.704,259.667 25.539 C 259.909 25.387,260.000 25.150,260.000 24.671 C 260.000 24.182,260.086 23.966,260.333 23.833 C 260.517 23.735,260.667 23.516,260.667 23.345 C 260.667 23.175,260.772 22.995,260.901 22.946 C 261.030 22.896,261.186 22.626,261.248 22.345 C 261.309 22.063,261.466 21.833,261.597 21.833 C 261.727 21.833,261.833 21.701,261.833 21.540 C 261.833 21.379,261.983 21.153,262.167 21.039 C 262.350 20.924,262.499 20.737,262.499 20.624 C 262.497 20.322,264.365 18.667,264.708 18.667 C 264.889 18.667,265.000 18.540,265.000 18.333 C 265.000 18.064,265.111 18.000,265.575 18.000 C 265.891 18.000,266.210 17.899,266.283 17.775 C 266.361 17.644,266.869 17.504,267.494 17.440 C 268.185 17.370,268.621 17.242,268.711 17.082 C 268.894 16.754,269.496 16.764,269.742 17.100 M317.167 17.063 C 317.167 17.325,317.876 17.500,318.938 17.500 C 319.475 17.500,319.667 17.566,319.667 17.750 C 319.667 17.931,319.852 18.000,320.333 18.000 C 320.889 18.000,321.000 18.056,321.000 18.333 C 321.000 18.556,321.111 18.667,321.333 18.667 C 321.522 18.667,321.667 18.778,321.667 18.922 C 321.667 19.062,321.792 19.225,321.946 19.284 C 322.307 19.423,323.411 20.527,323.549 20.888 C 323.608 21.041,323.771 21.167,323.911 21.167 C 324.052 21.167,324.167 21.299,324.167 21.460 C 324.167 21.621,324.317 21.847,324.500 21.961 C 324.744 22.113,324.833 22.350,324.833 22.840 C 324.833 23.256,324.921 23.544,325.063 23.599 C 325.203 23.652,325.336 24.075,325.405 24.677 C 325.484 25.379,325.587 25.667,325.758 25.667 C 326.109 25.667,326.115 29.420,325.764 29.555 C 325.613 29.613,325.487 30.039,325.410 30.752 C 325.336 31.449,325.207 31.892,325.063 31.948 C 324.922 32.002,324.833 32.288,324.833 32.684 C 324.833 33.222,324.776 33.333,324.500 33.333 C 324.315 33.333,324.167 33.444,324.167 33.583 C 324.167 33.721,324.017 33.983,323.833 34.167 C 323.650 34.350,323.500 34.607,323.500 34.739 C 323.500 34.870,323.350 35.025,323.167 35.083 C 322.983 35.142,322.833 35.334,322.833 35.511 C 322.833 35.722,322.718 35.833,322.501 35.833 C 322.319 35.833,322.076 35.983,321.961 36.167 C 321.847 36.350,321.584 36.500,321.377 36.500 C 321.111 36.500,321.000 36.598,321.000 36.833 C 321.000 37.110,320.889 37.167,320.345 37.167 C 319.985 37.167,319.578 37.279,319.440 37.417 C 319.286 37.571,318.877 37.667,318.368 37.667 C 317.014 37.667,316.000 37.855,316.000 38.106 C 316.000 38.293,315.086 38.333,310.833 38.333 L 305.667 38.333 305.667 33.928 C 305.667 29.669,305.678 29.519,306.000 29.417 C 306.291 29.324,306.333 29.164,306.333 28.155 C 306.333 27.222,306.397 26.936,306.667 26.667 C 306.886 26.447,307.000 26.111,307.000 25.684 C 307.000 25.273,307.088 25.002,307.241 24.943 C 307.373 24.892,307.531 24.590,307.591 24.270 C 307.650 23.951,307.797 23.652,307.917 23.606 C 308.037 23.560,308.186 23.292,308.248 23.011 C 308.309 22.730,308.466 22.500,308.597 22.500 C 308.748 22.500,308.833 22.321,308.833 22.001 C 308.833 21.683,308.954 21.427,309.167 21.295 C 309.350 21.180,309.500 21.001,309.500 20.896 C 309.500 20.791,309.650 20.666,309.833 20.618 C 310.017 20.570,310.167 20.420,310.167 20.285 C 310.167 20.150,310.317 20.000,310.500 19.952 C 310.683 19.904,310.833 19.745,310.833 19.599 C 310.833 19.453,310.953 19.333,311.099 19.333 C 311.245 19.333,311.404 19.183,311.452 19.000 C 311.500 18.817,311.643 18.667,311.769 18.667 C 311.896 18.667,312.150 18.517,312.333 18.333 C 312.517 18.150,312.800 18.000,312.963 18.000 C 313.126 18.000,313.407 17.898,313.588 17.773 C 313.769 17.648,314.316 17.509,314.804 17.463 C 315.307 17.416,315.810 17.261,315.965 17.107 C 316.301 16.771,317.167 16.739,317.167 17.063 M361.732 17.083 C 361.845 17.235,362.338 17.375,363.000 17.441 C 363.631 17.504,364.139 17.644,364.217 17.775 C 364.290 17.899,364.609 18.000,364.925 18.000 C 365.389 18.000,365.500 18.064,365.500 18.333 C 365.500 18.577,365.611 18.667,365.915 18.667 C 366.150 18.667,366.421 18.812,366.539 19.000 C 366.653 19.183,366.879 19.333,367.040 19.333 C 367.222 19.333,367.333 19.460,367.333 19.667 C 367.333 19.889,367.444 20.000,367.667 20.000 C 367.852 20.000,368.000 20.111,368.000 20.250 C 368.000 20.387,368.150 20.650,368.333 20.833 C 368.517 21.017,368.667 21.317,368.667 21.500 C 368.667 21.685,368.778 21.833,368.917 21.833 C 369.054 21.833,369.167 21.934,369.167 22.058 C 369.167 22.181,369.317 22.417,369.500 22.583 C 369.683 22.749,369.833 23.068,369.833 23.291 C 369.833 23.558,369.948 23.728,370.167 23.785 C 370.428 23.853,370.500 24.012,370.500 24.521 C 370.500 24.964,370.606 25.261,370.833 25.455 C 371.089 25.674,371.167 25.947,371.167 26.620 C 371.167 27.389,371.209 27.500,371.500 27.500 C 371.813 27.500,371.833 27.611,371.833 29.339 C 371.833 30.819,371.882 31.196,372.083 31.273 C 372.246 31.336,372.333 31.595,372.333 32.018 L 372.333 32.667 361.250 32.667 C 349.283 32.667,349.639 32.694,350.500 31.833 C 350.792 31.542,350.833 31.278,350.833 29.721 C 350.833 28.377,350.894 27.876,351.082 27.668 C 351.220 27.516,351.381 27.023,351.441 26.571 C 351.501 26.120,351.651 25.690,351.775 25.617 C 351.909 25.537,352.000 25.189,352.000 24.753 C 352.000 24.169,352.067 24.001,352.333 23.917 C 352.546 23.849,352.667 23.664,352.667 23.405 C 352.667 23.162,352.763 23.000,352.909 23.000 C 353.053 23.000,353.195 22.769,353.258 22.432 C 353.326 22.070,353.480 21.834,353.682 21.781 C 353.857 21.735,354.000 21.586,354.000 21.450 C 354.000 21.314,354.113 21.159,354.250 21.106 C 354.387 21.054,354.500 20.900,354.500 20.765 C 354.500 20.426,355.500 19.392,355.958 19.255 C 356.165 19.194,356.333 19.072,356.333 18.985 C 356.333 18.897,356.521 18.754,356.750 18.667 C 356.979 18.580,357.167 18.394,357.167 18.254 C 357.167 18.075,357.338 18.000,357.750 18.000 C 358.157 18.000,358.333 17.925,358.333 17.750 C 358.333 17.573,358.515 17.499,358.958 17.498 C 360.018 17.495,360.833 17.305,360.833 17.062 C 360.833 16.755,361.500 16.770,361.732 17.083 " stroke="none" fill="#343434" fill-rule="evenodd"></path><path id="path1" d="M4.804 0.170 C 4.773 0.264,4.467 0.351,4.124 0.364 C 3.638 0.382,3.500 0.455,3.500 0.694 C 3.500 0.889,3.379 1.000,3.167 1.000 C 2.944 1.000,2.833 1.111,2.833 1.333 C 2.833 1.556,2.722 1.667,2.500 1.667 C 2.315 1.667,2.167 1.778,2.167 1.917 C 2.167 2.054,2.054 2.167,1.917 2.167 C 1.778 2.167,1.667 2.315,1.667 2.500 C 1.667 2.722,1.556 2.833,1.333 2.833 C 1.126 2.833,1.000 2.944,1.000 3.127 C 1.000 3.288,0.850 3.513,0.667 3.628 C 0.454 3.761,0.333 4.017,0.333 4.335 C 0.333 4.609,0.258 4.833,0.167 4.833 C -0.068 4.833,-0.064 76.284,0.170 76.362 C 0.264 76.394,0.351 76.700,0.364 77.044 C 0.382 77.514,0.453 77.658,0.652 77.626 C 0.817 77.600,0.937 77.725,0.970 77.958 C 1.004 78.199,1.138 78.333,1.345 78.333 C 1.556 78.333,1.667 78.448,1.667 78.667 C 1.667 78.852,1.778 79.000,1.917 79.000 C 2.054 79.000,2.167 79.112,2.167 79.250 C 2.167 79.389,2.315 79.500,2.500 79.500 C 2.694 79.500,2.833 79.611,2.833 79.766 C 2.833 79.912,2.981 80.070,3.161 80.117 C 3.341 80.164,3.534 80.345,3.589 80.518 C 3.662 80.747,3.846 80.833,4.261 80.833 C 4.576 80.833,4.833 80.908,4.833 81.000 C 4.833 81.111,16.889 81.167,40.667 81.167 C 64.444 81.167,76.500 81.111,76.500 81.000 C 76.500 80.908,76.644 80.833,76.820 80.833 C 77.316 80.833,77.667 80.654,77.667 80.399 C 77.667 80.271,77.817 80.167,78.000 80.167 C 78.222 80.167,78.333 80.056,78.333 79.833 C 78.333 79.611,78.444 79.500,78.667 79.500 C 78.850 79.500,79.000 79.396,79.000 79.269 C 79.000 79.143,79.150 79.000,79.333 78.952 C 79.517 78.904,79.667 78.745,79.667 78.599 C 79.667 78.444,79.806 78.333,80.000 78.333 C 80.218 78.333,80.333 78.222,80.333 78.011 C 80.333 77.834,80.475 77.644,80.647 77.589 C 80.820 77.535,80.958 77.398,80.954 77.287 C 80.933 76.654,81.027 76.333,81.232 76.333 C 81.661 76.333,81.667 75.896,81.667 40.583 C 81.667 5.270,81.661 4.833,81.232 4.833 C 81.104 4.833,80.991 4.683,80.979 4.500 C 80.940 3.867,80.916 3.806,80.625 3.593 C 80.465 3.476,80.333 3.257,80.333 3.107 C 80.333 2.944,80.198 2.833,80.000 2.833 C 79.778 2.833,79.667 2.722,79.667 2.500 C 79.667 2.278,79.556 2.167,79.333 2.167 C 79.148 2.167,79.000 2.056,79.000 1.917 C 79.000 1.778,78.852 1.667,78.667 1.667 C 78.444 1.667,78.333 1.556,78.333 1.333 C 78.333 1.118,78.222 1.000,78.019 1.000 C 77.846 1.000,77.667 0.851,77.618 0.667 C 77.555 0.424,77.391 0.333,77.016 0.333 C 76.732 0.333,76.500 0.258,76.500 0.167 C 76.500 -0.068,4.882 -0.064,4.804 0.170 M49.458 19.211 C 49.621 19.338,49.667 21.485,49.667 28.937 L 49.667 38.500 59.073 38.500 L 68.479 38.500 68.393 37.875 C 68.346 37.531,68.243 36.875,68.163 36.417 C 68.084 35.958,67.969 35.171,67.907 34.667 C 67.800 33.783,67.198 31.700,66.864 31.060 C 66.775 30.890,66.614 30.563,66.507 30.333 C 66.152 29.579,65.720 28.852,65.246 28.213 C 64.569 27.300,62.066 24.877,61.671 24.751 C 61.485 24.692,61.333 24.574,61.333 24.489 C 61.333 24.403,61.240 24.332,61.125 24.330 C 61.010 24.329,60.594 24.109,60.200 23.841 C 59.805 23.574,59.401 23.328,59.302 23.295 C 59.126 23.236,60.155 20.860,60.585 20.333 C 60.697 20.196,60.836 19.885,60.893 19.642 C 61.066 18.912,62.830 18.643,63.348 19.268 C 63.454 19.395,63.672 19.500,63.831 19.500 C 63.991 19.500,64.301 19.638,64.519 19.807 C 64.738 19.975,65.292 20.331,65.750 20.597 C 66.959 21.297,69.902 24.308,70.788 25.750 C 71.073 26.214,72.151 28.031,72.320 28.333 C 73.121 29.762,74.333 33.617,74.333 34.736 C 74.334 35.111,74.459 35.979,74.612 36.667 C 75.204 39.325,74.943 44.987,74.057 48.667 C 73.914 49.262,73.735 50.012,73.659 50.333 C 73.424 51.335,72.957 52.535,72.364 53.664 C 72.050 54.261,71.640 55.050,71.452 55.417 C 71.264 55.783,70.861 56.396,70.555 56.778 C 70.250 57.160,70.000 57.536,70.000 57.613 C 70.000 57.872,67.510 60.463,66.454 61.304 C 63.780 63.432,60.848 64.201,60.831 62.780 C 60.830 62.672,60.457 61.841,60.003 60.934 C 59.075 59.078,59.070 59.165,60.134 58.554 C 61.259 57.907,62.073 57.302,63.233 56.250 C 64.044 55.514,65.631 53.520,66.022 52.746 C 66.159 52.473,66.361 52.081,66.469 51.875 C 66.578 51.669,66.755 51.331,66.864 51.125 C 67.305 50.285,67.732 48.433,68.179 45.417 C 68.274 44.775,68.391 44.044,68.439 43.792 L 68.526 43.333 59.097 43.333 L 49.667 43.333 49.667 51.992 L 49.667 60.650 49.125 61.157 C 48.827 61.437,48.419 61.665,48.218 61.666 C 48.017 61.666,47.806 61.743,47.749 61.835 C 47.638 62.015,45.618 63.000,45.361 63.000 C 45.276 63.000,45.114 63.112,45.000 63.250 C 44.752 63.549,43.650 63.583,43.367 63.300 C 43.213 63.147,43.167 58.272,43.167 42.376 L 43.167 21.652 43.576 21.242 C 43.801 21.017,44.105 20.833,44.251 20.833 C 44.479 20.833,45.210 20.504,46.167 19.970 C 46.304 19.894,46.604 19.745,46.833 19.641 C 47.063 19.536,47.534 19.319,47.882 19.159 C 48.504 18.873,49.049 18.891,49.458 19.211 M24.775 19.854 C 24.944 20.003,25.357 20.173,25.692 20.233 C 26.026 20.293,26.392 20.453,26.504 20.588 C 26.616 20.723,26.796 20.833,26.903 20.833 C 27.661 20.833,30.848 24.234,31.236 25.456 C 31.356 25.833,30.532 26.569,29.780 26.757 C 29.542 26.817,29.260 26.971,29.153 27.100 C 29.046 27.228,28.837 27.334,28.688 27.334 C 28.539 27.335,28.192 27.485,27.917 27.667 C 26.911 28.332,26.154 28.131,25.379 26.992 C 24.614 25.866,23.662 25.012,22.965 24.824 C 22.625 24.733,22.302 24.585,22.247 24.495 C 22.095 24.250,20.473 24.313,20.000 24.583 C 19.771 24.714,19.392 24.824,19.158 24.827 C 17.282 24.853,15.469 28.493,15.901 31.368 C 16.047 32.344,17.143 33.756,18.083 34.182 C 18.267 34.265,18.529 34.402,18.667 34.488 C 19.234 34.840,20.462 35.333,21.004 35.426 C 21.323 35.481,21.846 35.627,22.167 35.750 C 22.488 35.874,23.140 36.015,23.618 36.062 C 24.095 36.110,24.657 36.257,24.868 36.389 C 25.078 36.521,25.524 36.677,25.858 36.736 C 26.193 36.794,26.558 36.953,26.670 37.088 C 26.782 37.223,27.005 37.333,27.165 37.333 C 27.324 37.333,27.646 37.483,27.879 37.667 C 28.112 37.850,28.377 38.000,28.467 38.000 C 29.775 38.000,34.333 43.409,34.333 44.959 C 34.333 45.126,34.483 45.688,34.667 46.210 C 34.929 46.957,35.000 47.586,35.000 49.167 C 35.000 50.748,34.929 51.377,34.667 52.123 C 34.483 52.645,34.333 53.190,34.333 53.335 C 34.333 54.565,30.079 60.333,29.172 60.333 C 29.091 60.333,28.925 60.427,28.804 60.542 C 28.397 60.926,27.234 61.667,27.037 61.667 C 26.929 61.667,26.596 61.816,26.296 61.999 C 25.996 62.182,25.578 62.332,25.367 62.333 C 25.156 62.333,24.743 62.465,24.450 62.625 C 23.690 63.041,17.357 63.056,16.583 62.644 C 16.308 62.498,15.810 62.328,15.475 62.268 C 15.141 62.207,14.775 62.047,14.663 61.912 C 14.551 61.777,14.328 61.667,14.169 61.667 C 14.009 61.667,13.688 61.517,13.455 61.333 C 13.221 61.150,12.978 61.000,12.914 61.000 C 12.378 61.000,9.377 58.077,8.396 56.599 C 7.145 54.714,7.045 54.098,7.961 53.913 C 8.212 53.862,8.694 53.673,9.033 53.494 C 9.372 53.314,9.732 53.167,9.834 53.167 C 9.935 53.167,10.357 53.012,10.771 52.824 C 12.051 52.241,12.440 52.390,13.410 53.835 C 15.464 56.896,19.757 58.990,21.807 57.931 C 22.087 57.785,22.472 57.667,22.661 57.667 C 23.622 57.667,26.058 55.784,27.070 54.259 C 28.834 51.601,29.001 47.460,27.432 45.262 C 26.688 44.222,25.003 42.846,24.141 42.577 C 23.926 42.510,23.602 42.353,23.421 42.228 C 23.240 42.102,22.903 41.997,22.671 41.994 C 22.440 41.991,21.950 41.844,21.583 41.667 C 21.217 41.490,20.598 41.342,20.208 41.339 C 19.818 41.336,19.219 41.183,18.877 41.000 C 18.535 40.817,18.125 40.667,17.966 40.667 C 17.713 40.667,16.748 40.257,16.000 39.831 C 15.862 39.753,15.266 39.440,14.674 39.136 C 12.850 38.199,10.000 35.104,10.000 34.062 C 10.000 33.957,9.888 33.657,9.751 33.394 C 9.096 32.138,9.566 26.729,10.423 25.667 C 10.533 25.529,10.756 25.133,10.917 24.787 C 11.622 23.268,15.042 20.505,16.575 20.216 C 16.855 20.163,17.172 20.050,17.281 19.965 C 17.970 19.425,24.180 19.333,24.775 19.854 " stroke="none" fill="#5404ac" fill-rule="evenodd"></path><path id="path2" d="M47.417 19.875 C 46.867 20.152,46.062 20.556,45.628 20.772 C 45.194 20.989,44.730 21.167,44.596 21.167 C 43.809 21.167,43.833 20.488,43.833 42.537 C 43.833 54.966,43.894 63.167,43.986 63.167 C 44.071 63.167,44.352 63.053,44.611 62.913 C 44.871 62.774,45.271 62.587,45.500 62.497 C 45.729 62.407,46.029 62.265,46.167 62.180 C 46.304 62.095,46.904 61.790,47.500 61.502 C 48.096 61.215,48.714 60.883,48.874 60.764 C 49.142 60.565,49.167 59.893,49.207 51.816 L 49.250 43.083 59.000 43.083 L 68.750 43.083 68.713 44.832 C 68.675 46.648,68.356 48.484,67.832 49.917 C 67.664 50.375,67.475 50.929,67.412 51.147 C 67.294 51.553,66.392 53.156,65.765 54.074 C 65.260 54.813,64.533 55.638,63.583 56.552 C 62.354 57.734,62.237 57.833,62.065 57.833 C 61.978 57.833,61.779 57.983,61.622 58.167 C 61.465 58.350,61.242 58.502,61.127 58.504 C 61.011 58.507,60.673 58.713,60.374 58.963 L 59.832 59.417 60.499 60.733 C 60.866 61.456,61.169 62.131,61.172 62.233 C 61.193 62.929,62.398 63.441,62.820 62.933 C 62.926 62.805,63.204 62.652,63.437 62.593 C 63.950 62.464,66.000 61.169,66.000 60.973 C 66.000 60.896,66.096 60.833,66.213 60.833 C 66.454 60.833,69.667 57.498,69.667 57.248 C 69.667 57.202,69.929 56.790,70.250 56.334 C 70.889 55.425,71.991 53.384,72.328 52.487 C 73.214 50.128,73.383 49.492,74.006 46.167 C 74.200 45.132,74.189 36.756,73.993 35.833 C 73.905 35.421,73.726 34.515,73.596 33.821 C 73.328 32.391,72.912 30.950,72.590 30.333 C 72.470 30.104,72.320 29.674,72.256 29.377 C 72.193 29.080,72.071 28.794,71.985 28.741 C 71.899 28.687,71.718 28.405,71.584 28.114 C 70.572 25.914,66.540 21.167,65.685 21.167 C 65.606 21.167,65.444 21.050,65.325 20.907 C 65.207 20.764,64.879 20.541,64.597 20.410 C 64.314 20.280,63.971 20.110,63.833 20.031 C 61.895 18.931,61.824 18.960,60.655 21.333 C 59.756 23.158,59.757 23.157,60.335 23.359 C 60.609 23.454,60.833 23.593,60.833 23.667 C 60.833 23.740,61.058 23.879,61.333 23.975 C 61.608 24.071,61.833 24.228,61.833 24.325 C 61.833 24.421,61.916 24.500,62.016 24.500 C 62.564 24.500,64.593 26.590,66.466 29.083 C 66.634 29.307,67.396 30.921,67.726 31.750 C 68.240 33.045,68.690 35.475,68.720 37.116 L 68.750 38.750 59.000 38.750 L 49.250 38.750 49.163 29.083 C 49.116 23.767,49.059 19.398,49.038 19.375 C 48.916 19.242,48.293 19.434,47.417 19.875 M18.833 19.948 C 18.604 19.994,18.338 20.096,18.242 20.175 C 18.146 20.254,17.733 20.371,17.325 20.434 C 16.917 20.498,16.404 20.689,16.186 20.858 C 15.967 21.028,15.660 21.167,15.503 21.167 C 15.347 21.167,15.083 21.317,14.917 21.500 C 14.751 21.683,14.552 21.833,14.474 21.833 C 14.276 21.833,12.847 23.140,11.921 24.167 C 9.887 26.425,9.272 31.710,10.729 34.417 C 10.877 34.692,10.998 34.973,10.999 35.042 C 11.000 35.205,11.377 35.648,12.500 36.808 C 13.572 37.915,14.370 38.486,15.773 39.147 C 16.153 39.326,16.513 39.554,16.575 39.653 C 16.636 39.752,16.832 39.833,17.010 39.833 C 17.189 39.833,17.614 39.983,17.956 40.167 C 18.299 40.350,18.730 40.500,18.914 40.501 C 19.099 40.502,19.443 40.603,19.678 40.726 C 19.914 40.849,20.507 41.002,20.996 41.067 C 21.485 41.132,22.080 41.283,22.318 41.404 C 22.555 41.524,23.024 41.672,23.358 41.732 C 23.693 41.793,24.058 41.953,24.170 42.088 C 24.282 42.223,24.508 42.333,24.672 42.333 C 25.022 42.333,26.515 43.458,27.299 44.312 C 29.965 47.218,29.495 52.936,26.344 55.928 C 25.611 56.624,23.872 57.830,23.587 57.839 C 23.493 57.842,23.117 57.990,22.750 58.167 C 21.913 58.571,18.946 58.643,18.412 58.271 C 18.231 58.146,17.830 57.988,17.521 57.920 C 16.060 57.602,12.519 54.279,12.503 53.212 C 12.497 52.826,11.739 52.794,11.149 53.154 C 10.838 53.344,10.424 53.499,10.229 53.499 C 10.034 53.500,9.787 53.605,9.681 53.733 C 9.575 53.860,9.239 54.012,8.934 54.069 C 8.021 54.240,7.712 54.710,8.148 55.264 C 8.342 55.510,8.500 55.777,8.500 55.856 C 8.500 55.935,8.614 56.131,8.754 56.292 C 8.894 56.452,9.378 57.044,9.829 57.607 C 10.662 58.647,12.817 60.526,13.527 60.831 C 13.741 60.924,14.029 61.063,14.167 61.142 C 16.626 62.543,21.791 63.127,23.907 62.243 C 24.227 62.110,24.652 62.000,24.851 62.000 C 25.176 62.000,26.339 61.538,27.000 61.146 C 27.137 61.064,27.438 60.908,27.667 60.798 C 27.896 60.688,28.212 60.483,28.368 60.341 C 28.525 60.199,28.851 59.933,29.092 59.750 C 30.775 58.470,33.496 54.890,33.501 53.950 C 33.502 53.840,33.623 53.525,33.770 53.250 C 35.459 50.095,34.024 43.540,30.986 40.533 C 30.124 39.680,27.838 38.072,27.000 37.729 C 26.863 37.673,26.450 37.492,26.083 37.328 C 25.717 37.164,25.154 36.976,24.833 36.912 C 24.512 36.848,24.169 36.730,24.070 36.651 C 23.972 36.572,23.400 36.437,22.801 36.352 C 22.201 36.268,21.480 36.078,21.197 35.932 C 20.914 35.786,20.509 35.667,20.295 35.667 C 19.667 35.667,17.335 34.380,16.586 33.619 C 15.354 32.369,14.694 29.260,15.455 28.294 C 15.546 28.178,15.672 27.870,15.734 27.608 C 15.976 26.598,17.698 24.791,18.645 24.553 C 18.874 24.496,19.254 24.348,19.489 24.225 C 21.387 23.235,24.552 24.567,26.000 26.967 C 26.444 27.702,26.954 27.874,27.333 27.417 C 27.447 27.279,27.638 27.167,27.757 27.167 C 27.876 27.167,28.598 26.849,29.361 26.461 C 30.125 26.073,30.772 25.745,30.798 25.732 C 30.854 25.705,30.180 24.529,29.921 24.199 C 29.063 23.106,26.894 21.167,26.529 21.167 C 26.446 21.167,26.199 21.028,25.981 20.857 C 25.762 20.687,25.283 20.493,24.917 20.426 C 24.550 20.359,24.145 20.216,24.016 20.110 C 23.777 19.912,19.651 19.783,18.833 19.948 " stroke="none" fill="#faf9fb" fill-rule="evenodd"></path><path id="path3" d="M47.882 19.159 C 47.534 19.319,47.063 19.536,46.833 19.641 C 46.604 19.745,46.304 19.894,46.167 19.970 C 45.210 20.504,44.479 20.833,44.251 20.833 C 44.105 20.833,43.801 21.017,43.576 21.242 L 43.167 21.652 43.167 42.376 C 43.167 58.272,43.213 63.147,43.367 63.300 C 43.650 63.583,44.752 63.549,45.000 63.250 C 45.114 63.112,45.276 63.000,45.361 63.000 C 45.618 63.000,47.638 62.015,47.749 61.835 C 47.806 61.743,48.017 61.666,48.218 61.666 C 48.419 61.665,48.827 61.437,49.125 61.157 L 49.667 60.650 49.667 51.992 L 49.667 43.333 59.097 43.333 L 68.526 43.333 68.439 43.792 C 68.391 44.044,68.274 44.775,68.179 45.417 C 67.732 48.433,67.305 50.285,66.864 51.125 C 66.755 51.331,66.578 51.669,66.469 51.875 C 66.361 52.081,66.159 52.473,66.022 52.746 C 65.052 54.667,62.476 57.208,60.134 58.554 C 59.070 59.165,59.075 59.078,60.003 60.934 C 60.457 61.841,60.830 62.672,60.831 62.780 C 60.848 64.201,63.780 63.432,66.454 61.304 C 67.510 60.463,70.000 57.872,70.000 57.613 C 70.000 57.536,70.250 57.160,70.555 56.778 C 70.861 56.396,71.264 55.783,71.452 55.417 C 71.640 55.050,72.050 54.261,72.364 53.664 C 72.957 52.535,73.424 51.335,73.659 50.333 C 73.735 50.012,73.914 49.262,74.057 48.667 C 74.943 44.987,75.204 39.325,74.612 36.667 C 74.459 35.979,74.334 35.111,74.333 34.736 C 74.333 33.617,73.121 29.762,72.320 28.333 C 72.151 28.031,71.073 26.214,70.788 25.750 C 69.902 24.308,66.959 21.297,65.750 20.597 C 65.292 20.331,64.738 19.975,64.519 19.807 C 64.301 19.638,63.991 19.500,63.831 19.500 C 63.672 19.500,63.454 19.395,63.348 19.268 C 62.830 18.643,61.066 18.912,60.893 19.642 C 60.836 19.885,60.697 20.196,60.585 20.333 C 60.155 20.860,59.126 23.236,59.302 23.295 C 59.401 23.328,59.805 23.574,60.200 23.841 C 60.594 24.109,61.010 24.329,61.125 24.330 C 61.240 24.332,61.333 24.403,61.333 24.489 C 61.333 24.574,61.485 24.692,61.671 24.751 C 62.066 24.877,64.569 27.300,65.246 28.213 C 65.720 28.852,66.152 29.579,66.507 30.333 C 66.614 30.563,66.775 30.890,66.864 31.060 C 67.198 31.700,67.800 33.783,67.907 34.667 C 67.969 35.171,68.084 35.958,68.163 36.417 C 68.243 36.875,68.346 37.531,68.393 37.875 L 68.479 38.500 59.073 38.500 L 49.667 38.500 49.667 28.937 C 49.667 21.485,49.621 19.338,49.458 19.211 C 49.049 18.891,48.504 18.873,47.882 19.159 M49.292 28.833 C 49.330 37.607,49.358 38.434,49.615 38.625 C 50.077 38.967,68.217 38.924,68.502 38.581 C 68.849 38.162,68.349 34.471,67.646 32.268 C 66.561 28.863,63.801 25.549,60.542 23.737 C 59.470 23.141,59.470 23.119,60.500 21.083 C 61.633 18.844,61.839 18.761,63.768 19.764 C 69.787 22.891,73.634 29.214,74.323 37.112 C 75.151 46.601,73.349 53.374,68.511 58.961 C 66.326 61.486,62.502 63.822,61.563 63.206 C 61.352 63.067,59.667 59.648,59.667 59.358 C 59.667 59.254,60.323 58.745,61.125 58.228 C 64.969 55.749,67.464 51.899,68.239 47.250 C 68.659 44.731,68.738 43.536,68.502 43.253 C 68.244 42.941,50.231 42.865,49.656 43.173 C 49.343 43.340,49.333 43.613,49.333 51.953 L 49.333 60.562 48.971 60.948 C 48.772 61.160,48.537 61.333,48.450 61.333 C 48.362 61.333,47.370 61.790,46.245 62.349 C 45.120 62.907,44.061 63.337,43.892 63.305 C 43.594 63.247,43.582 62.532,43.541 42.532 L 43.499 21.819 43.908 21.410 C 44.134 21.184,44.462 21.000,44.639 21.000 C 44.815 21.000,45.053 20.887,45.167 20.750 C 45.281 20.612,45.459 20.499,45.562 20.498 C 45.665 20.498,46.350 20.201,47.083 19.839 C 47.817 19.477,48.604 19.196,48.833 19.215 L 49.250 19.250 49.292 28.833 M17.948 19.663 C 17.690 19.744,17.390 19.880,17.281 19.965 C 17.172 20.050,16.855 20.163,16.575 20.216 C 15.042 20.505,11.622 23.268,10.917 24.787 C 10.756 25.133,10.533 25.529,10.423 25.667 C 9.566 26.729,9.096 32.138,9.751 33.394 C 9.888 33.657,10.000 33.957,10.000 34.062 C 10.000 35.104,12.850 38.199,14.674 39.136 C 15.266 39.440,15.862 39.753,16.000 39.831 C 16.748 40.257,17.713 40.667,17.966 40.667 C 18.125 40.667,18.535 40.817,18.877 41.000 C 19.219 41.183,19.818 41.336,20.208 41.339 C 20.598 41.342,21.217 41.490,21.583 41.667 C 21.950 41.844,22.440 41.991,22.671 41.994 C 22.903 41.997,23.240 42.102,23.421 42.228 C 23.602 42.353,23.926 42.510,24.141 42.577 C 30.029 44.416,29.886 53.783,23.918 57.151 C 23.416 57.435,22.850 57.667,22.661 57.667 C 22.472 57.667,22.087 57.785,21.807 57.931 C 19.757 58.990,15.464 56.896,13.410 53.835 C 12.440 52.390,12.051 52.241,10.771 52.824 C 10.357 53.012,9.935 53.167,9.834 53.167 C 9.732 53.167,9.372 53.314,9.033 53.494 C 8.694 53.673,8.212 53.862,7.961 53.913 C 7.045 54.098,7.145 54.714,8.396 56.599 C 9.377 58.077,12.378 61.000,12.914 61.000 C 12.978 61.000,13.221 61.150,13.455 61.333 C 13.688 61.517,14.009 61.667,14.169 61.667 C 14.328 61.667,14.551 61.777,14.663 61.912 C 14.775 62.047,15.141 62.207,15.475 62.268 C 15.810 62.328,16.308 62.498,16.583 62.644 C 17.357 63.056,23.690 63.041,24.450 62.625 C 24.743 62.465,25.156 62.333,25.367 62.333 C 25.578 62.332,25.996 62.182,26.296 61.999 C 26.596 61.816,26.929 61.667,27.037 61.667 C 27.234 61.667,28.397 60.926,28.804 60.542 C 28.925 60.427,29.091 60.333,29.172 60.333 C 30.079 60.333,34.333 54.565,34.333 53.335 C 34.333 53.190,34.483 52.645,34.667 52.123 C 34.929 51.377,35.000 50.748,35.000 49.167 C 35.000 47.586,34.929 46.957,34.667 46.210 C 34.483 45.688,34.333 45.126,34.333 44.959 C 34.333 44.163,32.871 41.798,31.417 40.242 C 30.937 39.729,28.663 38.000,28.467 38.000 C 28.377 38.000,28.112 37.850,27.879 37.667 C 27.646 37.483,27.324 37.333,27.165 37.333 C 27.005 37.333,26.782 37.223,26.670 37.088 C 26.558 36.953,26.193 36.794,25.858 36.736 C 25.524 36.677,25.078 36.521,24.868 36.389 C 24.657 36.257,24.095 36.110,23.618 36.062 C 23.140 36.015,22.488 35.874,22.167 35.750 C 21.846 35.627,21.323 35.481,21.004 35.426 C 20.462 35.333,19.234 34.840,18.667 34.488 C 18.529 34.402,18.267 34.265,18.083 34.182 C 17.143 33.756,16.047 32.344,15.901 31.368 C 15.469 28.493,17.282 24.853,19.158 24.827 C 19.392 24.824,19.771 24.714,20.000 24.583 C 20.473 24.313,22.095 24.250,22.247 24.495 C 22.302 24.585,22.625 24.733,22.965 24.824 C 23.662 25.012,24.614 25.866,25.379 26.992 C 26.154 28.131,26.911 28.332,27.917 27.667 C 28.192 27.485,28.539 27.335,28.688 27.334 C 28.837 27.334,29.046 27.228,29.153 27.100 C 29.260 26.971,29.542 26.817,29.780 26.757 C 30.532 26.569,31.356 25.833,31.236 25.456 C 30.848 24.234,27.661 20.833,26.903 20.833 C 26.796 20.833,26.616 20.723,26.504 20.588 C 26.392 20.453,26.026 20.293,25.692 20.233 C 25.357 20.173,24.944 20.003,24.775 19.854 C 24.421 19.544,18.823 19.388,17.948 19.663 M23.583 19.824 C 26.282 20.403,28.349 21.815,30.271 24.393 C 31.308 25.783,31.363 25.662,29.213 26.727 C 28.683 26.990,27.966 27.346,27.620 27.519 C 26.632 28.012,26.466 27.940,25.400 26.554 C 23.100 23.561,19.856 23.305,17.093 25.898 C 14.715 28.129,15.108 33.024,17.768 34.292 C 18.079 34.440,18.333 34.623,18.333 34.698 C 18.333 34.772,18.430 34.833,18.548 34.833 C 18.666 34.833,19.060 34.985,19.423 35.171 C 19.786 35.356,20.383 35.554,20.750 35.611 C 21.117 35.667,21.604 35.805,21.833 35.916 C 22.063 36.028,22.603 36.166,23.035 36.222 C 27.378 36.790,32.323 40.521,33.786 44.333 C 38.223 55.896,25.635 66.851,14.200 61.378 C 11.909 60.282,9.811 58.324,8.108 55.691 C 7.572 54.862,7.611 54.250,8.209 54.086 C 8.591 53.981,9.849 53.480,10.750 53.074 C 11.945 52.535,12.359 52.677,13.152 53.894 C 14.334 55.708,16.374 57.481,17.596 57.755 C 17.864 57.815,18.346 57.984,18.667 58.130 C 19.833 58.661,23.035 58.218,24.013 57.389 C 24.158 57.267,24.369 57.167,24.483 57.167 C 24.774 57.167,27.500 54.410,27.500 54.116 C 27.500 53.983,27.608 53.784,27.741 53.674 C 28.326 53.188,28.749 51.332,28.750 49.241 C 28.750 46.733,28.149 45.246,26.591 43.901 C 25.002 42.529,22.751 41.516,20.476 41.150 C 19.958 41.067,19.321 40.887,19.059 40.750 C 18.797 40.614,18.445 40.502,18.276 40.501 C 18.107 40.500,17.769 40.393,17.526 40.262 C 17.282 40.132,16.596 39.787,16.000 39.497 C 14.026 38.536,13.416 38.110,12.119 36.785 C 7.756 32.328,9.558 23.664,15.408 20.976 C 15.596 20.890,15.938 20.711,16.167 20.579 C 16.396 20.446,16.757 20.337,16.969 20.336 C 17.182 20.334,17.519 20.244,17.719 20.134 C 18.493 19.711,22.152 19.517,23.583 19.824 " stroke="none" fill="#b48dd9" fill-rule="evenodd"></path><path id="path4" d="M47.083 19.839 C 46.350 20.201,45.665 20.498,45.562 20.498 C 45.459 20.499,45.281 20.612,45.167 20.750 C 45.053 20.887,44.815 21.000,44.639 21.000 C 44.462 21.000,44.134 21.184,43.908 21.410 L 43.499 21.819 43.541 42.532 C 43.582 62.532,43.594 63.247,43.892 63.305 C 44.061 63.337,45.120 62.907,46.245 62.349 C 47.370 61.790,48.362 61.333,48.450 61.333 C 48.537 61.333,48.772 61.160,48.971 60.948 L 49.333 60.562 49.333 51.956 C 49.333 43.940,49.353 43.337,49.625 43.169 C 49.892 43.003,49.888 42.992,49.583 43.038 C 49.256 43.087,49.249 43.232,49.207 51.818 C 49.167 59.893,49.142 60.565,48.874 60.764 C 48.714 60.883,48.096 61.215,47.500 61.502 C 46.904 61.790,46.304 62.095,46.167 62.180 C 46.029 62.265,45.729 62.407,45.500 62.497 C 45.271 62.587,44.871 62.774,44.611 62.913 C 44.352 63.053,44.071 63.167,43.986 63.167 C 43.894 63.167,43.833 54.966,43.833 42.537 C 43.833 20.433,43.807 21.167,44.612 21.167 C 44.754 21.167,45.144 21.022,45.477 20.846 C 47.399 19.827,48.889 19.212,49.038 19.375 C 49.059 19.398,49.116 23.766,49.163 29.081 C 49.249 38.581,49.256 38.747,49.583 38.804 C 49.894 38.859,49.897 38.848,49.625 38.640 C 49.355 38.433,49.331 37.732,49.292 28.833 L 49.250 19.250 48.833 19.215 C 48.604 19.196,47.817 19.477,47.083 19.839 M61.542 19.304 C 61.279 19.471,59.667 22.640,59.667 22.990 C 59.667 23.133,60.061 23.469,60.542 23.737 C 63.801 25.549,66.561 28.863,67.646 32.268 C 68.374 34.549,68.849 38.162,68.481 38.608 C 68.282 38.849,68.285 38.876,68.500 38.802 C 69.082 38.603,68.560 33.852,67.726 31.750 C 67.396 30.921,66.634 29.307,66.466 29.083 C 64.593 26.590,62.564 24.500,62.016 24.500 C 61.916 24.500,61.833 24.421,61.833 24.325 C 61.833 24.228,61.608 24.071,61.333 23.975 C 61.058 23.879,60.833 23.740,60.833 23.667 C 60.833 23.593,60.609 23.454,60.335 23.359 C 59.757 23.157,59.756 23.158,60.655 21.333 C 61.824 18.960,61.895 18.931,63.833 20.031 C 63.971 20.110,64.314 20.280,64.597 20.410 C 64.879 20.541,65.207 20.764,65.325 20.907 C 65.444 21.050,65.606 21.167,65.685 21.167 C 66.225 21.167,68.964 24.026,70.250 25.931 C 71.199 27.337,71.311 27.520,71.584 28.114 C 71.718 28.405,71.899 28.687,71.985 28.741 C 72.071 28.794,72.193 29.080,72.256 29.377 C 72.320 29.674,72.470 30.104,72.590 30.333 C 72.912 30.950,73.328 32.391,73.596 33.821 C 73.726 34.515,73.905 35.421,73.993 35.833 C 74.189 36.756,74.200 45.132,74.006 46.167 C 73.383 49.492,73.214 50.128,72.328 52.487 C 71.991 53.384,70.889 55.425,70.250 56.334 C 69.929 56.790,69.667 57.202,69.667 57.248 C 69.667 57.498,66.454 60.833,66.213 60.833 C 66.096 60.833,66.000 60.896,66.000 60.973 C 66.000 61.169,63.950 62.464,63.437 62.593 C 63.204 62.652,62.926 62.805,62.820 62.933 C 62.398 63.441,61.193 62.929,61.172 62.233 C 61.169 62.131,60.866 61.456,60.499 60.733 L 59.832 59.417 60.374 58.963 C 60.673 58.713,61.011 58.507,61.127 58.504 C 61.242 58.502,61.465 58.350,61.622 58.167 C 61.779 57.983,61.978 57.833,62.065 57.833 C 62.238 57.833,62.366 57.725,63.583 56.548 C 65.409 54.782,67.507 51.720,67.497 50.835 C 67.496 50.696,67.159 51.208,66.749 51.972 C 66.088 53.203,65.657 53.896,65.088 54.641 C 64.315 55.653,62.326 57.454,61.125 58.228 C 59.405 59.337,59.451 59.102,60.522 61.315 C 61.676 63.701,61.760 63.736,63.808 62.669 C 69.476 59.716,73.463 53.166,74.259 45.500 C 75.179 36.647,73.497 29.225,69.486 24.436 C 66.803 21.231,62.690 18.575,61.542 19.304 M20.298 19.790 C 20.875 19.823,21.775 19.823,22.298 19.790 C 22.822 19.757,22.350 19.730,21.250 19.730 C 20.150 19.731,19.722 19.758,20.298 19.790 M17.833 20.083 C 17.604 20.214,17.229 20.325,17.000 20.330 C 16.771 20.334,16.396 20.446,16.167 20.579 C 15.938 20.711,15.596 20.890,15.408 20.976 C 10.526 23.219,8.237 29.947,10.685 34.858 C 11.304 36.099,13.401 38.222,14.500 38.721 C 14.637 38.784,15.125 39.054,15.583 39.323 C 16.480 39.848,16.751 39.939,16.575 39.653 C 16.513 39.554,16.153 39.326,15.773 39.147 C 14.370 38.486,13.572 37.915,12.500 36.808 C 11.263 35.531,11.053 35.266,10.913 34.808 C 10.847 34.593,10.720 34.326,10.631 34.215 C 9.209 32.435,9.996 26.304,11.921 24.167 C 12.847 23.140,14.276 21.833,14.474 21.833 C 14.552 21.833,14.751 21.683,14.917 21.500 C 15.083 21.317,15.347 21.167,15.503 21.167 C 15.660 21.167,15.967 21.028,16.186 20.858 C 16.404 20.689,16.917 20.498,17.325 20.434 C 17.733 20.371,18.146 20.254,18.242 20.175 C 18.338 20.096,18.604 19.997,18.833 19.955 C 19.208 19.886,19.200 19.877,18.750 19.862 C 18.475 19.853,18.063 19.952,17.833 20.083 M23.583 19.942 C 23.767 19.993,23.992 20.096,24.083 20.170 C 24.175 20.243,24.550 20.359,24.917 20.426 C 25.283 20.493,25.762 20.687,25.981 20.857 C 26.199 21.028,26.446 21.167,26.529 21.167 C 26.894 21.167,29.063 23.106,29.921 24.199 C 30.180 24.529,30.854 25.705,30.798 25.732 C 30.772 25.745,30.125 26.073,29.361 26.461 C 28.598 26.849,27.876 27.167,27.757 27.167 C 27.638 27.167,27.447 27.279,27.333 27.417 C 26.954 27.874,26.444 27.702,26.000 26.967 C 25.051 25.395,23.101 23.977,21.945 24.019 L 21.417 24.038 22.016 24.155 C 23.203 24.387,24.363 25.210,25.400 26.557 C 26.466 27.939,26.633 28.012,27.620 27.519 C 27.966 27.346,28.683 26.990,29.213 26.727 C 31.363 25.662,31.308 25.783,30.271 24.393 C 28.385 21.864,25.895 20.151,23.750 19.905 C 23.475 19.873,23.400 19.890,23.583 19.942 M19.489 24.225 C 19.254 24.348,18.874 24.496,18.645 24.553 C 17.698 24.791,15.976 26.598,15.734 27.608 C 15.672 27.870,15.546 28.178,15.455 28.294 C 14.694 29.260,15.354 32.369,16.586 33.619 C 17.324 34.369,19.683 35.678,20.245 35.650 C 20.581 35.634,20.581 35.633,20.250 35.516 C 20.067 35.451,19.638 35.271,19.297 35.116 C 18.956 34.960,18.600 34.833,18.505 34.833 C 18.411 34.833,18.333 34.772,18.333 34.698 C 18.333 34.623,18.079 34.440,17.768 34.292 C 16.463 33.670,15.511 31.921,15.503 30.133 C 15.490 26.921,17.534 24.611,20.833 24.109 C 21.086 24.070,20.988 24.037,20.583 24.024 C 20.217 24.012,19.724 24.103,19.489 24.225 M21.227 35.939 C 21.490 36.081,22.196 36.267,22.798 36.352 C 23.399 36.437,23.972 36.572,24.070 36.651 C 24.169 36.730,24.512 36.848,24.833 36.912 C 25.400 37.026,26.660 37.530,27.167 37.846 C 27.304 37.932,27.529 38.049,27.667 38.107 C 29.892 39.040,32.464 41.788,33.541 44.383 C 34.523 46.748,34.648 51.610,33.770 53.250 C 33.623 53.525,33.502 53.840,33.501 53.950 C 33.496 54.890,30.775 58.470,29.092 59.750 C 28.851 59.933,28.525 60.199,28.368 60.341 C 28.212 60.483,27.896 60.688,27.667 60.798 C 27.438 60.908,27.137 61.064,27.000 61.146 C 26.351 61.530,25.179 62.000,24.868 62.000 C 24.677 62.000,24.311 62.088,24.053 62.195 C 23.794 62.302,23.171 62.441,22.667 62.504 L 21.750 62.618 22.583 62.640 C 26.457 62.742,31.746 58.676,33.714 54.083 C 36.996 46.424,31.563 37.338,23.035 36.222 C 22.603 36.166,22.047 36.018,21.800 35.893 C 21.144 35.563,20.612 35.605,21.227 35.939 M17.377 40.167 C 17.719 40.350,18.129 40.500,18.289 40.500 C 18.453 40.500,18.310 40.356,17.956 40.167 C 17.614 39.983,17.204 39.833,17.045 39.833 C 16.880 39.833,17.024 39.977,17.377 40.167 M19.060 40.751 C 19.323 40.888,19.998 41.075,20.560 41.168 C 21.433 41.312,22.765 41.725,24.083 42.260 C 24.378 42.380,24.391 42.364,24.192 42.119 C 24.068 41.967,23.693 41.793,23.358 41.732 C 23.024 41.672,22.555 41.524,22.318 41.404 C 22.080 41.283,21.485 41.132,20.996 41.067 C 20.507 41.002,19.914 40.849,19.678 40.726 C 19.443 40.603,19.100 40.502,18.917 40.502 C 18.647 40.502,18.675 40.550,19.060 40.751 M24.879 42.667 C 25.112 42.850,25.372 43.000,25.458 43.000 C 25.915 43.000,27.685 44.990,28.200 46.083 C 29.141 48.079,28.858 52.747,27.741 53.674 C 27.608 53.784,27.500 53.983,27.500 54.116 C 27.500 54.410,24.774 57.167,24.483 57.167 C 24.369 57.167,24.158 57.267,24.013 57.389 C 23.745 57.617,21.919 58.254,21.167 58.383 C 20.897 58.429,20.986 58.461,21.417 58.472 C 21.783 58.481,22.383 58.344,22.750 58.167 C 23.117 57.990,23.493 57.842,23.587 57.839 C 23.872 57.830,25.611 56.624,26.344 55.928 C 29.495 52.936,29.965 47.218,27.299 44.312 C 26.554 43.500,25.029 42.333,24.713 42.333 C 24.536 42.333,24.588 42.438,24.879 42.667 M68.481 43.226 C 68.828 43.646,68.323 47.854,67.733 49.458 C 67.590 49.848,67.503 50.259,67.541 50.372 C 67.633 50.650,68.070 49.364,68.404 47.832 C 68.780 46.103,68.840 43.148,68.500 43.031 C 68.285 42.958,68.282 42.985,68.481 43.226 M10.908 52.988 C 10.760 53.133,10.276 53.330,8.540 53.953 C 7.277 54.406,7.429 54.995,9.454 57.500 C 11.113 59.552,15.101 62.455,15.590 61.966 C 15.633 61.922,15.387 61.751,15.043 61.586 C 14.698 61.420,14.304 61.220,14.167 61.142 C 14.029 61.063,13.741 60.924,13.527 60.831 C 12.817 60.526,10.662 58.647,9.829 57.607 C 9.378 57.044,8.894 56.452,8.754 56.292 C 8.614 56.131,8.500 55.935,8.500 55.856 C 8.500 55.777,8.342 55.510,8.148 55.264 C 7.712 54.710,8.021 54.240,8.934 54.069 C 9.239 54.012,9.575 53.860,9.681 53.733 C 9.787 53.605,10.019 53.500,10.195 53.500 C 10.520 53.500,11.500 53.059,11.500 52.912 C 11.500 52.773,11.072 52.828,10.908 52.988 M12.292 52.944 C 12.406 52.990,12.501 53.115,12.503 53.222 C 12.520 54.281,16.069 57.604,17.521 57.920 C 17.830 57.988,18.231 58.146,18.412 58.271 C 18.593 58.397,19.005 58.492,19.329 58.483 L 19.917 58.467 19.263 58.313 C 18.904 58.229,18.529 58.097,18.430 58.020 C 18.331 57.943,18.002 57.833,17.698 57.776 C 16.445 57.538,14.374 55.769,13.152 53.894 C 12.772 53.311,12.376 52.839,12.272 52.846 C 12.152 52.855,12.159 52.890,12.292 52.944 M16.660 62.339 C 17.161 62.519,17.911 62.656,18.327 62.643 L 19.083 62.620 18.250 62.504 C 17.792 62.440,17.206 62.301,16.947 62.194 C 16.689 62.087,16.314 62.003,16.114 62.006 C 15.914 62.009,16.160 62.159,16.660 62.339 " stroke="none" fill="#bc9cdc" fill-rule="evenodd"></path></g></svg>